Russolo-72ptExtraLight.ufo
<glyph name="exclam" format="2">
  <advance width="450"/>
  <unicode hex="0021"/>
  <note>
exclam
</note>
  <outline>
    <contour>
      <point x="221" y="324" type="curve"/>
      <point x="229" y="324" type="line"/>
      <point x="237" y="997"/>
      <point x="276" y="1148"/>
      <point x="276" y="1230" type="curve" smooth="yes"/>
      <point x="276" y="1308"/>
      <point x="245" y="1284"/>
      <point x="226" y="1462" type="curve"/>
      <point x="224" y="1462" type="line"/>
      <point x="205" y="1284"/>
      <point x="174" y="1308"/>
      <point x="174" y="1230" type="curve" smooth="yes"/>
      <point x="174" y="1148"/>
      <point x="213" y="997"/>
    </contour>
    <contour>
      <point x="225" y="-14" type="curve" smooth="yes"/>
      <point x="257" y="-14"/>
      <point x="281" y="10"/>
      <point x="281" y="43" type="curve" smooth="yes"/>
      <point x="281" y="76"/>
      <point x="256" y="98"/>
      <point x="225" y="98" type="curve" smooth="yes"/>
      <point x="194" y="98"/>
      <point x="169" y="76"/>
      <point x="169" y="43" type="curve" smooth="yes"/>
      <point x="169" y="10"/>
      <point x="193" y="-14"/>
    </contour>
  </outline>
</glyph>
<glyph name="numbersign" format="2">
  <advance width="1149"/>
  <unicode hex="0023"/>
  <note>
numbersign
</note>
  <outline>
    <contour>
      <point x="671" y="0" type="line"/>
      <point x="721" y="0" type="line"/>
      <point x="981" y="1430" type="line"/>
      <point x="931" y="1430" type="line"/>
    </contour>
    <contour>
      <point x="66" y="501" type="line"/>
      <point x="1016" y="501" type="line"/>
      <point x="1016" y="511" type="line"/>
      <point x="66" y="511" type="line"/>
    </contour>
    <contour>
      <point x="191" y="0" type="line"/>
      <point x="241" y="0" type="line"/>
      <point x="501" y="1430" type="line"/>
      <point x="451" y="1430" type="line"/>
    </contour>
    <contour>
      <point x="126" y="923" type="line"/>
      <point x="1076" y="923" type="line"/>
      <point x="1076" y="933" type="line"/>
      <point x="126" y="933" type="line"/>
    </contour>
  </outline>
</glyph>
<glyph name="ampersand" format="2">
  <advance width="1149"/>
  <unicode hex="0026"/>
  <note>
ampersand
</note>
  <outline>
    <contour>
      <point x="522" y="-28" type="curve" smooth="yes"/>
      <point x="666" y="-28"/>
      <point x="762" y="-2"/>
      <point x="842" y="48" type="curve"/>
      <point x="838" y="67" type="line"/>
      <point x="737" y="-1"/>
      <point x="641" y="-16"/>
      <point x="516" y="-16" type="curve" smooth="yes"/>
      <point x="296" y="-16"/>
      <point x="200" y="171"/>
      <point x="200" y="384" type="curve" smooth="yes"/>
      <point x="200" y="629"/>
      <point x="326" y="779"/>
      <point x="532" y="779" type="curve"/>
      <point x="536" y="789" type="line"/>
      <point x="350" y="789"/>
      <point x="278" y="950"/>
      <point x="278" y="1100" type="curve" smooth="yes"/>
      <point x="278" y="1283"/>
      <point x="384" y="1450"/>
      <point x="552" y="1450" type="curve" smooth="yes"/>
      <point x="694" y="1450" type="line"/>
      <point x="694" y="1460" type="line"/>
      <point x="548" y="1460" type="line" smooth="yes"/>
      <point x="348" y="1460"/>
      <point x="202" y="1292"/>
      <point x="202" y="1100" type="curve" smooth="yes"/>
      <point x="202" y="955"/>
      <point x="294" y="828"/>
      <point x="464" y="786" type="curve"/>
      <point x="284" y="758"/>
      <point x="114" y="619"/>
      <point x="114" y="378" type="curve" smooth="yes"/>
      <point x="114" y="137"/>
      <point x="274" y="-28"/>
    </contour>
    <contour>
      <point x="935" y="-18" type="curve" smooth="yes"/>
      <point x="984" y="-18"/>
      <point x="1049" y="-1"/>
      <point x="1065" y="6" type="curve"/>
      <point x="1065" y="33" type="line"/>
      <point x="1037" y="20"/>
      <point x="982" y="-5"/>
      <point x="943" y="-5" type="curve" smooth="yes"/>
      <point x="889" y="-5"/>
      <point x="892" y="44"/>
      <point x="892" y="214" type="curve" smooth="yes"/>
      <point x="892" y="779" type="line"/>
      <point x="1032" y="779" type="line"/>
      <point x="1032" y="789" type="line"/>
      <point x="892" y="789" type="line"/>
      <point x="892" y="1116" type="line"/>
      <point x="872" y="1116" type="line"/>
      <point x="872" y="814"/>
      <point x="832" y="788"/>
      <point x="684" y="789" type="curve" smooth="yes"/>
      <point x="534" y="789" type="line"/>
      <point x="531" y="779" type="line"/>
      <point x="820" y="779" type="line"/>
      <point x="820" y="240" type="line" smooth="yes"/>
      <point x="820" y="73"/>
      <point x="823" y="-18"/>
    </contour>
  </outline>
</glyph>
<glyph name="parenright" format="2">
  <advance width="471"/>
  <unicode hex="0029"/>
  <note>
parenright
</note>
  <outline>
    <contour>
      <point x="66" y="-395" type="line"/>
      <point x="297" y="-65"/>
      <point x="390" y="207"/>
      <point x="390" y="550" type="curve" smooth="yes"/>
      <point x="390" y="887"/>
      <point x="300" y="1143"/>
      <point x="68" y="1503" type="curve"/>
      <point x="45" y="1483" type="line"/>
      <point x="176" y="1298"/>
      <point x="324" y="901"/>
      <point x="324" y="550" type="curve" smooth="yes"/>
      <point x="324" y="203"/>
      <point x="180" y="-171"/>
      <point x="49" y="-370" type="curve"/>
    </contour>
  </outline>
</glyph>
<glyph name="plus" format="2">
  <advance width="936"/>
  <unicode hex="002B"/>
  <note>
plus
</note>
  <outline>
    <contour>
      <point x="80" y="658" type="line"/>
      <point x="856" y="658" type="line"/>
      <point x="856" y="678" type="line"/>
      <point x="80" y="678" type="line"/>
    </contour>
    <contour>
      <point x="458" y="280" type="line"/>
      <point x="478" y="280" type="line"/>
      <point x="478" y="1056" type="line"/>
      <point x="458" y="1056" type="line"/>
    </contour>
  </outline>
</glyph>
<glyph name="zero" format="2">
  <advance width="1232"/>
  <unicode hex="0030"/>
  <note>
zero
</note>
  <anchor x="616" y="716" name="center"/>
  <outline>
    <contour>
      <point x="616" y="-24" type="curve" smooth="yes"/>
      <point x="927" y="-24"/>
      <point x="1148" y="267"/>
      <point x="1148" y="716" type="curve" smooth="yes"/>
      <point x="1148" y="1165"/>
      <point x="927" y="1455"/>
      <point x="616" y="1455" type="curve" smooth="yes"/>
      <point x="305" y="1455"/>
      <point x="84" y="1165"/>
      <point x="84" y="716" type="curve" smooth="yes"/>
      <point x="84" y="267"/>
      <point x="305" y="-24"/>
    </contour>
    <contour>
      <point x="616" y="4" type="curve" smooth="yes"/>
      <point x="345" y="4"/>
      <point x="149" y="284"/>
      <point x="149" y="716" type="curve" smooth="yes"/>
      <point x="149" y="1148"/>
      <point x="345" y="1427"/>
      <point x="616" y="1427" type="curve" smooth="yes"/>
      <point x="887" y="1427"/>
      <point x="1083" y="1148"/>
      <point x="1083" y="716" type="curve" smooth="yes"/>
      <point x="1083" y="284"/>
      <point x="887" y="4"/>
    </contour>
  </outline>
</glyph>
<glyph name="four" format="2">
  <advance width="942"/>
  <unicode hex="0034"/>
  <note>
four
</note>
  <outline>
    <contour>
      <point x="643" y="0" type="line"/>
      <point x="731" y="0" type="line"/>
      <point x="731" y="392" type="line"/>
      <point x="654" y="353" type="line"/>
      <point x="921" y="353" type="line"/>
      <point x="921" y="363" type="line"/>
      <point x="654" y="363" type="line"/>
      <point x="731" y="340" type="line"/>
      <point x="731" y="909" type="line"/>
      <point x="643" y="909" type="line"/>
      <point x="643" y="340" type="line"/>
      <point x="682" y="363" type="line"/>
      <point x="34" y="363" type="line"/>
      <point x="45" y="360" type="line"/>
      <point x="262" y="628"/>
      <point x="518" y="1052"/>
      <point x="641" y="1426" type="curve"/>
      <point x="549" y="1439" type="line"/>
      <point x="458" y="1026"/>
      <point x="222" y="629"/>
      <point x="24" y="353" type="curve"/>
      <point x="682" y="353" type="line"/>
      <point x="643" y="392" type="line"/>
    </contour>
  </outline>
</glyph>
<glyph name="five" format="2">
  <advance width="892"/>
  <unicode hex="0035"/>
  <note>
five
</note>
  <outline>
    <contour>
      <point x="380" y="-27" type="curve" smooth="yes"/>
      <point x="647" y="-27"/>
      <point x="822" y="159"/>
      <point x="822" y="436" type="curve" smooth="yes"/>
      <point x="822" y="750"/>
      <point x="595" y="883"/>
      <point x="410" y="883" type="curve" smooth="yes"/>
      <point x="312" y="883"/>
      <point x="201" y="846"/>
      <point x="127" y="809" type="curve"/>
      <point x="132" y="810" type="line"/>
      <point x="259" y="1380" type="line"/>
      <point x="241" y="1334" type="line"/>
      <point x="753" y="1334" type="line"/>
      <point x="753" y="1430" type="line"/>
      <point x="252" y="1430" type="line"/>
      <point x="111" y="798" type="line"/>
      <point x="112" y="798" type="line"/>
      <point x="196" y="836"/>
      <point x="297" y="873"/>
      <point x="388" y="873" type="curve" smooth="yes"/>
      <point x="576" y="873"/>
      <point x="737" y="723"/>
      <point x="737" y="436" type="curve" smooth="yes"/>
      <point x="737" y="200"/>
      <point x="646" y="-16"/>
      <point x="384" y="-16" type="curve" smooth="yes"/>
      <point x="248" y="-16"/>
      <point x="131" y="42"/>
      <point x="50" y="182" type="curve"/>
      <point x="43" y="182" type="line"/>
      <point x="135" y="14"/>
      <point x="254" y="-27"/>
    </contour>
  </outline>
</glyph>
<glyph name="eight" format="2">
  <advance width="949"/>
  <unicode hex="0038"/>
  <note>
eight
</note>
  <outline>
    <contour>
      <point x="460" y="-31" type="curve" smooth="yes"/>
      <point x="700" y="-31"/>
      <point x="877" y="143"/>
      <point x="877" y="374" type="curve" smooth="yes"/>
      <point x="877" y="582"/>
      <point x="744" y="706"/>
      <point x="532" y="788" type="curve" smooth="yes"/>
      <point x="234" y="903"/>
      <point x="205" y="1020"/>
      <point x="205" y="1115" type="curve" smooth="yes"/>
      <point x="205" y="1303"/>
      <point x="300" y="1421"/>
      <point x="460" y="1426" type="curve" smooth="yes"/>
      <point x="625" y="1431"/>
      <point x="769" y="1319"/>
      <point x="769" y="1118" type="curve" smooth="yes"/>
      <point x="769" y="990"/>
      <point x="707" y="863"/>
      <point x="522" y="817" type="curve"/>
      <point x="520" y="810" type="line"/>
      <point x="726" y="864"/>
      <point x="820" y="986"/>
      <point x="814" y="1134" type="curve" smooth="yes"/>
      <point x="808" y="1305"/>
      <point x="674" y="1441"/>
      <point x="473" y="1441" type="curve" smooth="yes"/>
      <point x="289" y="1441"/>
      <point x="136" y="1328"/>
      <point x="136" y="1116" type="curve" smooth="yes"/>
      <point x="136" y="968"/>
      <point x="206" y="867"/>
      <point x="377" y="796" type="curve" smooth="yes"/>
      <point x="750" y="642"/>
      <point x="801" y="510"/>
      <point x="801" y="358" type="curve" smooth="yes"/>
      <point x="801" y="126"/>
      <point x="645" y="-16"/>
      <point x="453" y="-16" type="curve" smooth="yes"/>
      <point x="225" y="-16"/>
      <point x="122" y="177"/>
      <point x="122" y="373" type="curve" smooth="yes"/>
      <point x="122" y="559"/>
      <point x="215" y="739"/>
      <point x="385" y="776" type="curve"/>
      <point x="388" y="783" type="line"/>
      <point x="199" y="739"/>
      <point x="77" y="555"/>
      <point x="77" y="368" type="curve" smooth="yes"/>
      <point x="77" y="167"/>
      <point x="203" y="-31"/>
    </contour>
  </outline>
</glyph>
<glyph name="greater" format="2">
  <advance width="936"/>
  <unicode hex="003E"/>
  <note>
greater
</note>
  <outline>
    <contour>
      <point x="80" y="382" type="line"/>
      <point x="784" y="683" type="line"/>
      <point x="784" y="685" type="line"/>
      <point x="80" y="984" type="line"/>
      <point x="80" y="952" type="line"/>
      <point x="711" y="683" type="line"/>
      <point x="80" y="414" type="line"/>
    </contour>
  </outline>
</glyph>
<glyph name="at" format="2">
  <advance width="1631"/>
  <unicode hex="0040"/>
  <note>
at
</note>
  <outline>
    <contour>
      <point x="860" y="-30" type="curve" smooth="yes"/>
      <point x="1134" y="-30"/>
      <point x="1376" y="120"/>
      <point x="1504" y="342" type="curve"/>
      <point x="1472" y="342" type="line"/>
      <point x="1346" y="130"/>
      <point x="1114" y="-14"/>
      <point x="860" y="-14" type="curve" smooth="yes"/>
      <point x="468" y="-14"/>
      <point x="150" y="324"/>
      <point x="150" y="716" type="curve" smooth="yes"/>
      <point x="150" y="1106"/>
      <point x="468" y="1444"/>
      <point x="860" y="1444" type="curve" smooth="yes"/>
      <point x="1214" y="1444"/>
      <point x="1464" y="1215"/>
      <point x="1464" y="892" type="curve" smooth="yes"/>
      <point x="1464" y="788"/>
      <point x="1444" y="689"/>
      <point x="1409" y="607" type="curve" smooth="yes"/>
      <point x="1352" y="471"/>
      <point x="1255" y="380"/>
      <point x="1148" y="380" type="curve" smooth="yes"/>
      <point x="1105" y="380"/>
      <point x="1026" y="449"/>
      <point x="1038" y="539" type="curve"/>
      <point x="1170" y="1074" type="line"/>
      <point x="1116" y="1074" type="line"/>
      <point x="1081" y="932" type="line"/>
      <point x="1055" y="1050"/>
      <point x="1012" y="1094"/>
      <point x="892" y="1094" type="curve" smooth="yes"/>
      <point x="660" y="1094"/>
      <point x="484" y="822"/>
      <point x="484" y="608" type="curve" smooth="yes"/>
      <point x="484" y="454"/>
      <point x="575" y="352"/>
      <point x="731" y="352" type="curve" smooth="yes"/>
      <point x="836" y="352"/>
      <point x="920" y="398"/>
      <point x="989" y="542" type="curve"/>
      <point x="996" y="426"/>
      <point x="1056" y="365"/>
      <point x="1141" y="365" type="curve" smooth="yes"/>
      <point x="1207" y="365"/>
      <point x="1267" y="389"/>
      <point x="1317" y="430" type="curve" smooth="yes"/>
      <point x="1367" y="471"/>
      <point x="1408" y="527"/>
      <point x="1439" y="593" type="curve" smooth="yes"/>
      <point x="1478" y="678"/>
      <point x="1500" y="784"/>
      <point x="1500" y="888" type="curve" smooth="yes"/>
      <point x="1500" y="1216"/>
      <point x="1239" y="1460"/>
      <point x="860" y="1460" type="curve" smooth="yes"/>
      <point x="448" y="1460"/>
      <point x="114" y="1126"/>
      <point x="114" y="716" type="curve" smooth="yes"/>
      <point x="114" y="304"/>
      <point x="448" y="-30"/>
    </contour>
    <contour>
      <point x="745" y="369" type="curve" smooth="yes"/>
      <point x="619" y="369"/>
      <point x="532" y="452"/>
      <point x="532" y="592" type="curve" smooth="yes"/>
      <point x="532" y="852"/>
      <point x="704" y="1081"/>
      <point x="901" y="1081" type="curve" smooth="yes"/>
      <point x="1008" y="1081"/>
      <point x="1050" y="997"/>
      <point x="1050" y="874" type="curve" smooth="yes"/>
      <point x="1050" y="718"/>
      <point x="949" y="369"/>
    </contour>
  </outline>
</glyph>
<glyph name="B" format="2">
  <advance width="1177"/>
  <unicode hex="0042"/>
  <note>
B
</note>
  <anchor x="615" y="0" name="bottom"/>
  <anchor x="615" y="1430" name="top"/>
  <outline>
    <contour>
      <point x="174" y="0" type="line"/>
      <point x="548" y="0" type="line" smooth="yes"/>
      <point x="908" y="0"/>
      <point x="1088" y="111"/>
      <point x="1088" y="386" type="curve" smooth="yes"/>
      <point x="1088" y="628"/>
      <point x="948" y="769"/>
      <point x="623" y="759" type="curve"/>
      <point x="623" y="758" type="line"/>
      <point x="892" y="755"/>
      <point x="1046" y="884"/>
      <point x="1046" y="1074" type="curve" smooth="yes"/>
      <point x="1046" y="1280"/>
      <point x="866" y="1430"/>
      <point x="598" y="1430" type="curve" smooth="yes"/>
      <point x="174" y="1430" type="line"/>
    </contour>
    <contour>
      <point x="246" y="10" type="line"/>
      <point x="246" y="755" type="line"/>
      <point x="201" y="753" type="line"/>
      <point x="588" y="753" type="line" smooth="yes"/>
      <point x="840" y="753"/>
      <point x="996" y="704"/>
      <point x="996" y="397" type="curve" smooth="yes"/>
      <point x="996" y="148"/>
      <point x="894" y="10"/>
      <point x="538" y="10" type="curve" smooth="yes"/>
      <point x="227" y="10" type="line"/>
    </contour>
    <contour>
      <point x="246" y="761" type="line"/>
      <point x="246" y="1420" type="line"/>
      <point x="217" y="1420" type="line"/>
      <point x="578" y="1420" type="line" smooth="yes"/>
      <point x="878" y="1420"/>
      <point x="954" y="1247"/>
      <point x="954" y="1069" type="curve" smooth="yes"/>
      <point x="954" y="816"/>
      <point x="799" y="763"/>
      <point x="578" y="763" type="curve" smooth="yes"/>
      <point x="201" y="763" type="line"/>
    </contour>
  </outline>
</glyph>
<glyph name="D" format="2">
  <advance width="1355"/>
  <unicode hex="0044"/>
  <note>
D
</note>
  <anchor x="681" y="0" name="bottom"/>
  <anchor x="219" y="715" name="center"/>
  <anchor x="681" y="1430" name="top"/>
  <outline>
    <contour>
      <point x="174" y="0" type="line"/>
      <point x="514" y="0" type="line" smooth="yes"/>
      <point x="735" y="0"/>
      <point x="906" y="38"/>
      <point x="1028" y="124" type="curve" smooth="yes"/>
      <point x="1187" y="235"/>
      <point x="1265" y="425"/>
      <point x="1265" y="715" type="curve" smooth="yes"/>
      <point x="1265" y="993"/>
      <point x="1194" y="1176"/>
      <point x="1045" y="1288" type="curve" smooth="yes"/>
      <point x="913" y="1388"/>
      <point x="714" y="1430"/>
      <point x="452" y="1430" type="curve" smooth="yes"/>
      <point x="174" y="1430" type="line"/>
    </contour>
    <contour>
      <point x="260" y="5" type="line"/>
      <point x="260" y="1425" type="line"/>
      <point x="236" y="1420" type="line"/>
      <point x="492" y="1420" type="line" smooth="yes"/>
      <point x="957" y="1420"/>
      <point x="1170" y="1200"/>
      <point x="1170" y="719" type="curve" smooth="yes"/>
      <point x="1170" y="233"/>
      <point x="954" y="10"/>
      <point x="484" y="10" type="curve" smooth="yes"/>
      <point x="236" y="10" type="line"/>
    </contour>
  </outline>
</glyph>
<glyph name="I" format="2">
  <advance width="430"/>
  <unicode hex="0049"/>
  <note>
I
</note>
  <anchor x="215" y="0" name="bottom"/>
  <anchor x="387" y="10" name="ogonek"/>
  <anchor x="215" y="1430" name="top"/>
  <anchor x="20" y="1430" name="topleft"/>
  <outline>
    <contour>
      <point x="175" y="0" type="line"/>
      <point x="255" y="0" type="line"/>
      <point x="255" y="1430" type="line"/>
      <point x="175" y="1430" type="line"/>
    </contour>
  </outline>
</glyph>
<glyph name="L" format="2">
  <advance width="973"/>
  <unicode hex="004C"/>
  <note>
L
</note>
  <anchor x="505" y="0" name="bottom"/>
  <anchor x="214" y="715" name="center"/>
  <anchor x="618" y="714" name="dot"/>
  <anchor x="905" y="10" name="ogonek"/>
  <anchor x="306" y="1430" name="top"/>
  <anchor x="11" y="1430" name="topleft"/>
  <anchor x="853" y="1430" name="topright"/>
  <outline>
    <contour>
      <point x="174" y="0" type="line"/>
      <point x="944" y="0" type="line"/>
      <point x="944" y="10" type="line"/>
      <point x="232" y="10" type="line"/>
      <point x="260" y="4" type="line"/>
      <point x="260" y="1430" type="line"/>
      <point x="174" y="1430" type="line"/>
    </contour>
  </outline>
</glyph>
<glyph name="M" format="2">
  <advance width="1754"/>
  <unicode hex="004D"/>
  <note>
M
</note>
  <guideline x="534" y="856" angle="112.9199"/>
  <guideline x="1132" y="711" angle="247.1086"/>
  <guideline x="678" y="730" angle="111.5953"/>
  <guideline x="1231" y="730" angle="248.2128"/>
  <guideline x="1191" y="689" angle="68.3561"/>
  <guideline x="614" y="712" angle="292.8657"/>
  <anchor x="877" y="0" name="bottom"/>
  <anchor x="877" y="1430" name="top"/>
  <outline>
    <contour>
      <point x="173" y="0" type="line"/>
      <point x="183" y="0" type="line"/>
      <point x="183" y="1417" type="line"/>
      <point x="181" y="1413" type="line"/>
      <point x="868" y="-3" type="line"/>
      <point x="1506" y="1404" type="line"/>
      <point x="1488" y="1387" type="line"/>
      <point x="1488" y="0" type="line"/>
      <point x="1581" y="0" type="line"/>
      <point x="1581" y="1430" type="line"/>
      <point x="1494" y="1430" type="line"/>
      <point x="905" y="132" type="line"/>
      <point x="917" y="148" type="line"/>
      <point x="295" y="1430" type="line"/>
      <point x="173" y="1430" type="line"/>
    </contour>
  </outline>
</glyph>
<glyph name="P" format="2">
  <advance width="1067"/>
  <unicode hex="0050"/>
  <note>
P
</note>
  <anchor x="547" y="0" name="bottom"/>
  <anchor x="547" y="1430" name="top"/>
  <outline>
    <contour>
      <point x="174" y="0" type="line"/>
      <point x="260" y="0" type="line"/>
      <point x="260" y="578" type="line"/>
      <point x="221" y="576" type="line"/>
      <point x="576" y="576" type="line" smooth="yes"/>
      <point x="690" y="576"/>
      <point x="797" y="620"/>
      <point x="877" y="695" type="curve" smooth="yes"/>
      <point x="957" y="770"/>
      <point x="1008" y="877"/>
      <point x="1008" y="1000" type="curve" smooth="yes"/>
      <point x="1008" y="1124"/>
      <point x="956" y="1232"/>
      <point x="874" y="1308" type="curve" smooth="yes"/>
      <point x="792" y="1385"/>
      <point x="680" y="1430"/>
      <point x="560" y="1430" type="curve" smooth="yes"/>
      <point x="174" y="1430" type="line"/>
    </contour>
    <contour>
      <point x="260" y="584" type="line"/>
      <point x="260" y="1424" type="line"/>
      <point x="221" y="1420" type="line"/>
      <point x="560" y="1420" type="line" smooth="yes"/>
      <point x="765" y="1420"/>
      <point x="940" y="1239"/>
      <point x="940" y="999" type="curve" smooth="yes"/>
      <point x="940" y="752"/>
      <point x="756" y="586"/>
      <point x="560" y="586" type="curve" smooth="yes"/>
      <point x="221" y="586" type="line"/>
    </contour>
  </outline>
</glyph>
<glyph name="asciicircum" format="2">
  <advance width="888"/>
  <unicode hex="005E"/>
  <note>
asciicircum
</note>
  <outline>
    <contour>
      <point x="96" y="859" type="line"/>
      <point x="134" y="859" type="line"/>
      <point x="452" y="1430" type="line"/>
      <point x="436" y="1430" type="line"/>
      <point x="754" y="859" type="line"/>
      <point x="792" y="859" type="line"/>
      <point x="455" y="1460" type="line"/>
      <point x="431" y="1460" type="line"/>
    </contour>
  </outline>
</glyph>
<glyph name="a" format="2">
  <advance width="1098"/>
  <unicode hex="0061"/>
  <note>
a
</note>
  <anchor x="502" y="0" name="bottom"/>
  <anchor x="933" y="0" name="ogonek"/>
  <anchor x="502" y="914" name="top"/>
  <outline>
    <contour>
      <point x="496" y="-24" type="curve" smooth="yes"/>
      <point x="690" y="-24"/>
      <point x="841" y="87"/>
      <point x="905" y="261" type="curve"/>
      <point x="898" y="271" type="line"/>
      <point x="898" y="0" type="line"/>
      <point x="970" y="0" type="line"/>
      <point x="970" y="910" type="line"/>
      <point x="898" y="910" type="line"/>
      <point x="898" y="638" type="line"/>
      <point x="905" y="647" type="line"/>
      <point x="841" y="824"/>
      <point x="690" y="939"/>
      <point x="496" y="939" type="curve" smooth="yes"/>
      <point x="238" y="939"/>
      <point x="52" y="736"/>
      <point x="52" y="454" type="curve" smooth="yes"/>
      <point x="52" y="173"/>
      <point x="238" y="-24"/>
    </contour>
    <contour>
      <point x="496" y="-11" type="curve" smooth="yes"/>
      <point x="274" y="-11"/>
      <point x="131" y="194"/>
      <point x="131" y="463" type="curve" smooth="yes"/>
      <point x="131" y="742"/>
      <point x="285" y="926"/>
      <point x="496" y="926" type="curve" smooth="yes"/>
      <point x="719" y="926"/>
      <point x="863" y="722"/>
      <point x="863" y="453" type="curve" smooth="yes"/>
      <point x="863" y="174"/>
      <point x="707" y="-11"/>
    </contour>
  </outline>
</glyph>
<glyph name="f" format="2">
  <advance width="407"/>
  <unicode hex="0066"/>
  <note>
f
</note>
  <anchor x="204" y="0" name="bottom"/>
  <anchor x="204" y="1514" name="top"/>
  <outline>
    <contour>
      <point x="167" y="0" type="line"/>
      <point x="239" y="0" type="line"/>
      <point x="239" y="1155" type="line" smooth="yes"/>
      <point x="239" y="1439"/>
      <point x="263" y="1518"/>
      <point x="347" y="1518" type="curve" smooth="yes"/>
      <point x="402" y="1510"/>
      <point x="440" y="1465"/>
      <point x="440" y="1388" type="curve" smooth="yes"/>
      <point x="440" y="1364"/>
      <point x="435" y="1333"/>
      <point x="428" y="1314" type="curve"/>
      <point x="478" y="1314" type="line"/>
      <point x="485" y="1357"/>
      <point x="488" y="1390"/>
      <point x="488" y="1411" type="curve" smooth="yes"/>
      <point x="488" y="1491"/>
      <point x="432" y="1531"/>
      <point x="340" y="1531" type="curve" smooth="yes"/>
      <point x="187" y="1531"/>
      <point x="167" y="1363"/>
      <point x="167" y="1155" type="curve" smooth="yes"/>
    </contour>
    <contour>
      <point x="27" y="900" type="line"/>
      <point x="383" y="900" type="line"/>
      <point x="383" y="910" type="line"/>
      <point x="27" y="910" type="line"/>
    </contour>
  </outline>
</glyph>
<glyph name="k" format="2">
  <advance width="852"/>
  <unicode hex="006B"/>
  <note>
k
</note>
  <guideline x="720" y="226" angle="315.2524"/>
  <anchor x="444" y="0" name="bottom"/>
  <anchor x="444" y="1514" name="top"/>
  <outline>
    <contour>
      <point x="141" y="0" type="line"/>
      <point x="219" y="0" type="line"/>
      <point x="219" y="1514" type="line"/>
      <point x="141" y="1514" type="line"/>
    </contour>
    <contour>
      <point x="755" y="0" type="line"/>
      <point x="852" y="0" type="line"/>
      <point x="326" y="551" type="line"/>
      <point x="274" y="504" type="line"/>
    </contour>
    <contour>
      <point x="192" y="420" type="line"/>
      <point x="724" y="910" type="line"/>
      <point x="698" y="910" type="line"/>
      <point x="188" y="446" type="line"/>
    </contour>
  </outline>
</glyph>
<glyph name="p" format="2">
  <advance width="1098"/>
  <unicode hex="0070"/>
  <note>
p
</note>
  <anchor x="549" y="0" name="bottom"/>
  <anchor x="549" y="914" name="top"/>
  <outline>
    <contour>
      <point x="141" y="-600" type="line"/>
      <point x="213" y="-600" type="line"/>
      <point x="213" y="221" type="line"/>
      <point x="204" y="210" type="line"/>
      <point x="278" y="66"/>
      <point x="419" y="-24"/>
      <point x="595" y="-24" type="curve" smooth="yes"/>
      <point x="859" y="-24"/>
      <point x="1046" y="179"/>
      <point x="1046" y="460" type="curve" smooth="yes"/>
      <point x="1046" y="742"/>
      <point x="858" y="938"/>
      <point x="595" y="938" type="curve" smooth="yes"/>
      <point x="419" y="938"/>
      <point x="278" y="851"/>
      <point x="204" y="708" type="curve"/>
      <point x="213" y="697" type="line"/>
      <point x="213" y="910" type="line"/>
      <point x="141" y="910" type="line"/>
    </contour>
    <contour>
      <point x="595" y="-11" type="curve" smooth="yes"/>
      <point x="379" y="-11"/>
      <point x="221" y="173"/>
      <point x="221" y="451" type="curve" smooth="yes"/>
      <point x="221" y="721"/>
      <point x="368" y="925"/>
      <point x="595" y="925" type="curve" smooth="yes"/>
      <point x="811" y="925"/>
      <point x="969" y="739"/>
      <point x="969" y="461" type="curve" smooth="yes"/>
      <point x="969" y="191"/>
      <point x="820" y="-11"/>
    </contour>
  </outline>
</glyph>
<glyph name="s" format="2">
  <advance width="738"/>
  <unicode hex="0073"/>
  <note>
s
</note>
  <anchor x="333" y="-20" name="bottom"/>
  <anchor x="361" y="914" name="top"/>
  <outline>
    <contour>
      <point x="359" y="-24" type="curve" smooth="yes"/>
      <point x="562" y="-24"/>
      <point x="690" y="77"/>
      <point x="693" y="244" type="curve" smooth="yes"/>
      <point x="696" y="453"/>
      <point x="455" y="509"/>
      <point x="384" y="526" type="curve" smooth="yes"/>
      <point x="171" y="578"/>
      <point x="140" y="641"/>
      <point x="140" y="719" type="curve" smooth="yes"/>
      <point x="140" y="897"/>
      <point x="296" y="925"/>
      <point x="386" y="925" type="curve" smooth="yes"/>
      <point x="540" y="925"/>
      <point x="576" y="838"/>
      <point x="636" y="761" type="curve"/>
      <point x="637" y="837" type="line"/>
      <point x="588" y="896"/>
      <point x="515" y="938"/>
      <point x="387" y="938" type="curve" smooth="yes"/>
      <point x="244" y="938"/>
      <point x="77" y="893"/>
      <point x="77" y="706" type="curve" smooth="yes"/>
      <point x="77" y="613"/>
      <point x="132" y="519"/>
      <point x="351" y="455" type="curve" smooth="yes"/>
      <point x="459" y="424"/>
      <point x="624" y="398"/>
      <point x="621" y="223" type="curve" smooth="yes"/>
      <point x="619" y="92"/>
      <point x="526" y="-8"/>
      <point x="357" y="-8" type="curve" smooth="yes"/>
      <point x="206" y="-8"/>
      <point x="117" y="67"/>
      <point x="48" y="169" type="curve"/>
      <point x="47" y="77" type="line"/>
      <point x="103" y="20"/>
      <point x="227" y="-24"/>
    </contour>
  </outline>
</glyph>
<glyph name="t" format="2">
  <advance width="421"/>
  <unicode hex="0074"/>
  <note>
t
</note>
  <anchor x="227" y="-10" name="bottom"/>
  <anchor x="187" y="587" name="center"/>
  <anchor x="217" y="914" name="top"/>
  <anchor x="399" y="1274" name="topright"/>
  <outline>
    <contour>
      <point x="267" y="-18" type="curve" smooth="yes"/>
      <point x="316" y="-18"/>
      <point x="381" y="-1"/>
      <point x="397" y="6" type="curve"/>
      <point x="397" y="33" type="line"/>
      <point x="369" y="20"/>
      <point x="314" y="-5"/>
      <point x="275" y="-5" type="curve" smooth="yes"/>
      <point x="221" y="-5"/>
      <point x="224" y="44"/>
      <point x="224" y="214" type="curve" smooth="yes"/>
      <point x="224" y="900" type="line"/>
      <point x="364" y="900" type="line"/>
      <point x="364" y="910" type="line"/>
      <point x="224" y="910" type="line"/>
      <point x="224" y="1197" type="line"/>
      <point x="204" y="1197" type="line"/>
      <point x="204" y="935"/>
      <point x="164" y="909"/>
      <point x="36" y="910" type="curve"/>
      <point x="36" y="900" type="line"/>
      <point x="152" y="900" type="line"/>
      <point x="152" y="240" type="line" smooth="yes"/>
      <point x="152" y="73"/>
      <point x="155" y="-18"/>
    </contour>
  </outline>
</glyph>
<glyph name="v" format="2">
  <advance width="910"/>
  <unicode hex="0076"/>
  <note>
v
</note>
  <guideline x="728" y="525" angle="246.2505"/>
  <guideline x="113" y="689" angle="114.2118"/>
  <guideline x="716" y="524" angle="246.4287"/>
  <anchor x="455" y="0" name="bottom"/>
  <anchor x="455" y="914" name="top"/>
  <outline>
    <contour>
      <point x="457" y="-16" type="line"/>
      <point x="464" y="-16" type="line"/>
      <point x="898" y="910" type="line"/>
      <point x="885" y="910" type="line"/>
      <point x="468" y="21" type="line"/>
      <point x="496" y="64" type="line"/>
      <point x="90" y="910" type="line"/>
      <point x="12" y="910" type="line"/>
    </contour>
  </outline>
</glyph>
<glyph name="x" format="2">
  <advance width="780"/>
  <unicode hex="0078"/>
  <note>
x
</note>
  <anchor x="389" y="0" name="bottom"/>
  <anchor x="389" y="914" name="top"/>
  <outline>
    <contour>
      <point x="661" y="0" type="line"/>
      <point x="744" y="0" type="line"/>
      <point x="140" y="910" type="line"/>
      <point x="57" y="910" type="line"/>
    </contour>
    <contour>
      <point x="24" y="0" type="line"/>
      <point x="47" y="0" type="line"/>
      <point x="391" y="457" type="line"/>
      <point x="381" y="480" type="line"/>
    </contour>
    <contour>
      <point x="396" y="456" type="line"/>
      <point x="746" y="910" type="line"/>
      <point x="718" y="910" type="line"/>
      <point x="395" y="488" type="line"/>
    </contour>
  </outline>
</glyph>
<glyph name="braceleft" format="2">
  <advance width="523"/>
  <unicode hex="007B"/>
  <note>
braceleft
</note>
  <outline>
    <contour>
      <point x="484" y="-402" type="curve"/>
      <point x="484" y="-352" type="line"/>
      <point x="304" y="-352"/>
      <point x="208" y="-212"/>
      <point x="208" y="8" type="curve" smooth="yes"/>
      <point x="208" y="330" type="line" smooth="yes"/>
      <point x="208" y="400"/>
      <point x="148" y="450"/>
      <point x="108" y="478" type="curve"/>
      <point x="148" y="508"/>
      <point x="208" y="556"/>
      <point x="208" y="626" type="curve" smooth="yes"/>
      <point x="208" y="1052" type="line" smooth="yes"/>
      <point x="208" y="1272"/>
      <point x="304" y="1412"/>
      <point x="484" y="1412" type="curve"/>
      <point x="484" y="1462" type="line"/>
      <point x="280" y="1462"/>
      <point x="168" y="1322"/>
      <point x="168" y="1122" type="curve" smooth="yes"/>
      <point x="168" y="626" type="line" smooth="yes"/>
      <point x="168" y="556"/>
      <point x="108" y="508"/>
      <point x="68" y="478" type="curve"/>
      <point x="108" y="448"/>
      <point x="168" y="400"/>
      <point x="168" y="330" type="curve" smooth="yes"/>
      <point x="168" y="-62" type="line" smooth="yes"/>
      <point x="168" y="-262"/>
      <point x="278" y="-402"/>
    </contour>
  </outline>
</glyph>
<glyph name="asciitilde" format="2">
  <advance width="1028"/>
  <unicode hex="007E"/>
  <note>
asciitilde
</note>
  <outline>
    <contour>
      <point x="675" y="650" type="curve" smooth="yes"/>
      <point x="780" y="650"/>
      <point x="847" y="695"/>
      <point x="912" y="793" type="curve"/>
      <point x="889" y="812" type="line"/>
      <point x="847" y="747"/>
      <point x="754" y="691"/>
      <point x="669" y="691" type="curve" smooth="yes"/>
      <point x="610" y="691"/>
      <point x="574" y="719"/>
      <point x="535" y="749" type="curve" smooth="yes"/>
      <point x="490" y="783"/>
      <point x="441" y="820"/>
      <point x="346" y="820" type="curve" smooth="yes"/>
      <point x="240" y="820"/>
      <point x="170" y="774"/>
      <point x="116" y="676" type="curve"/>
      <point x="141" y="658" type="line"/>
      <point x="183" y="723"/>
      <point x="265" y="777"/>
      <point x="349" y="777" type="curve" smooth="yes"/>
      <point x="417" y="777"/>
      <point x="455" y="741"/>
      <point x="502" y="708" type="curve" smooth="yes"/>
      <point x="544" y="679"/>
      <point x="592" y="650"/>
    </contour>
  </outline>
</glyph>
<glyph name=".notdef" format="2">
  <advance width="1348"/>
  <unicode hex="007F"/>
  <note>
.notdef
</note>
  <outline>
    <contour>
      <point x="174" y="-354" type="line"/>
      <point x="1174" y="-354" type="line"/>
      <point x="1174" y="1410" type="line"/>
      <point x="174" y="1410" type="line"/>
    </contour>
    <contour>
      <point x="286" y="-242" type="line"/>
      <point x="286" y="1298" type="line"/>
      <point x="1062" y="1298" type="line"/>
      <point x="1062" y="-242" type="line"/>
    </contour>
  </outline>
</glyph>
<glyph name="sterling" format="2">
  <advance width="1125"/>
  <unicode hex="00A3"/>
  <note>
sterling
</note>
  <outline>
    <contour>
      <point x="222" y="22" type="curve" smooth="yes"/>
      <point x="381" y="22"/>
      <point x="707" y="186"/>
      <point x="707" y="424" type="curve" smooth="yes"/>
      <point x="707" y="664"/>
      <point x="575" y="728"/>
      <point x="414" y="845" type="curve" smooth="yes"/>
      <point x="373" y="875"/>
      <point x="251" y="967"/>
      <point x="251" y="1150" type="curve" smooth="yes"/>
      <point x="251" y="1321"/>
      <point x="373" y="1450"/>
      <point x="557" y="1450" type="curve" smooth="yes"/>
      <point x="739" y="1450"/>
      <point x="907" y="1303"/>
      <point x="923" y="1128" type="curve"/>
      <point x="980" y="1128" type="line"/>
      <point x="945" y="1336"/>
      <point x="778" y="1464"/>
      <point x="564" y="1464" type="curve" smooth="yes"/>
      <point x="323" y="1464"/>
      <point x="169" y="1318"/>
      <point x="169" y="1132" type="curve" smooth="yes"/>
      <point x="169" y="908"/>
      <point x="269" y="829"/>
      <point x="408" y="725" type="curve" smooth="yes"/>
      <point x="523" y="639"/>
      <point x="620" y="550"/>
      <point x="620" y="388" type="curve" smooth="yes"/>
      <point x="620" y="229"/>
      <point x="422" y="22"/>
      <point x="146" y="22" type="curve"/>
      <point x="197" y="22"/>
      <point x="171" y="22"/>
    </contour>
    <contour>
      <point x="132" y="0" type="line"/>
      <point x="1016" y="0" type="line"/>
      <point x="1016" y="22" type="line"/>
      <point x="132" y="22" type="line"/>
    </contour>
    <contour>
      <point x="152" y="663" type="line"/>
      <point x="946" y="663" type="line"/>
      <point x="946" y="673" type="line"/>
      <point x="152" y="673" type="line"/>
    </contour>
  </outline>
</glyph>
<glyph name="section" format="2">
  <advance width="1022"/>
  <unicode hex="00A7"/>
  <note>
section
</note>
  <outline>
    <contour>
      <point x="475" y="-400" type="curve" smooth="yes"/>
      <point x="650" y="-400"/>
      <point x="849" y="-310"/>
      <point x="846" y="-125" type="curve" smooth="yes"/>
      <point x="843" y="67"/>
      <point x="627" y="125"/>
      <point x="472" y="179" type="curve"/>
      <point x="470" y="173" type="line"/>
      <point x="682" y="148"/>
      <point x="914" y="300"/>
      <point x="910" y="532" type="curve" smooth="yes"/>
      <point x="908" y="681"/>
      <point x="778" y="838"/>
      <point x="556" y="906" type="curve" smooth="yes"/>
      <point x="402" y="953"/>
      <point x="273" y="1031"/>
      <point x="271" y="1164" type="curve" smooth="yes"/>
      <point x="269" y="1301"/>
      <point x="379" y="1431"/>
      <point x="544" y="1431" type="curve" smooth="yes"/>
      <point x="703" y="1431"/>
      <point x="799" y="1309"/>
      <point x="791" y="1176" type="curve"/>
      <point x="860" y="1176" type="line"/>
      <point x="860" y="1194" type="line" smooth="yes"/>
      <point x="860" y="1334"/>
      <point x="743" y="1446"/>
      <point x="547" y="1446" type="curve" smooth="yes"/>
      <point x="372" y="1446"/>
      <point x="173" y="1356"/>
      <point x="176" y="1171" type="curve" smooth="yes"/>
      <point x="179" y="979"/>
      <point x="395" y="921"/>
      <point x="550" y="867" type="curve"/>
      <point x="552" y="871" type="line"/>
      <point x="340" y="898"/>
      <point x="108" y="746"/>
      <point x="112" y="514" type="curve" smooth="yes"/>
      <point x="114" y="365"/>
      <point x="244" y="208"/>
      <point x="466" y="140" type="curve" smooth="yes"/>
      <point x="620" y="93"/>
      <point x="749" y="15"/>
      <point x="751" y="-118" type="curve" smooth="yes"/>
      <point x="753" y="-255"/>
      <point x="643" y="-385"/>
      <point x="478" y="-385" type="curve" smooth="yes"/>
      <point x="319" y="-385"/>
      <point x="223" y="-263"/>
      <point x="231" y="-130" type="curve"/>
      <point x="162" y="-130" type="line"/>
      <point x="162" y="-148" type="line" smooth="yes"/>
      <point x="162" y="-288"/>
      <point x="279" y="-400"/>
    </contour>
    <contour>
      <point x="516" y="179" type="curve" smooth="yes"/>
      <point x="351" y="179"/>
      <point x="216" y="356"/>
      <point x="213" y="518" type="curve" smooth="yes"/>
      <point x="210" y="679"/>
      <point x="331" y="864"/>
      <point x="506" y="864" type="curve" smooth="yes"/>
      <point x="671" y="864"/>
      <point x="806" y="690"/>
      <point x="809" y="528" type="curve" smooth="yes"/>
      <point x="812" y="367"/>
      <point x="681" y="179"/>
    </contour>
  </outline>
</glyph>
<glyph name="copyright" format="2">
  <advance width="1663"/>
  <unicode hex="00A9"/>
  <note>
copyright
</note>
  <outline>
    <contour>
      <point x="830" y="-10" type="curve" smooth="yes"/>
      <point x="1018" y="-10"/>
      <point x="1200" y="66"/>
      <point x="1342" y="204" type="curve" smooth="yes"/>
      <point x="1477" y="336"/>
      <point x="1548" y="515"/>
      <point x="1548" y="708" type="curve" smooth="yes"/>
      <point x="1548" y="904"/>
      <point x="1474" y="1084"/>
      <point x="1342" y="1216" type="curve" smooth="yes"/>
      <point x="1206" y="1352"/>
      <point x="1026" y="1426"/>
      <point x="830" y="1426" type="curve" smooth="yes"/>
      <point x="635" y="1426"/>
      <point x="460" y="1353"/>
      <point x="328" y="1218" type="curve" smooth="yes"/>
      <point x="191" y="1078"/>
      <point x="114" y="899"/>
      <point x="114" y="708" type="curve" smooth="yes"/>
      <point x="114" y="515"/>
      <point x="189" y="338"/>
      <point x="326" y="202" type="curve" smooth="yes"/>
      <point x="469" y="60"/>
      <point x="644" y="-10"/>
    </contour>
    <contour>
      <point x="841" y="268" type="curve" smooth="yes"/>
      <point x="1028" y="268"/>
      <point x="1153" y="377"/>
      <point x="1187" y="523" type="curve"/>
      <point x="1130" y="523" type="line"/>
      <point x="1086" y="379"/>
      <point x="988" y="294"/>
      <point x="850" y="294" type="curve" smooth="yes"/>
      <point x="667" y="294"/>
      <point x="516" y="443"/>
      <point x="516" y="705" type="curve" smooth="yes"/>
      <point x="516" y="963"/>
      <point x="662" y="1126"/>
      <point x="850" y="1126" type="curve" smooth="yes"/>
      <point x="978" y="1126"/>
      <point x="1076" y="1050"/>
      <point x="1118" y="919" type="curve"/>
      <point x="1177" y="919" type="line"/>
      <point x="1143" y="1051"/>
      <point x="1028" y="1150"/>
      <point x="851" y="1150" type="curve" smooth="yes"/>
      <point x="616" y="1150"/>
      <point x="445" y="976"/>
      <point x="445" y="704" type="curve" smooth="yes"/>
      <point x="445" y="440"/>
      <point x="606" y="268"/>
    </contour>
    <contour>
      <point x="830" y="26" type="curve" smooth="yes"/>
      <point x="652" y="26"/>
      <point x="480" y="97"/>
      <point x="350" y="228" type="curve" smooth="yes"/>
      <point x="219" y="360"/>
      <point x="148" y="532"/>
      <point x="148" y="708" type="curve" smooth="yes"/>
      <point x="148" y="889"/>
      <point x="220" y="1060"/>
      <point x="352" y="1194" type="curve" smooth="yes"/>
      <point x="478" y="1322"/>
      <point x="644" y="1392"/>
      <point x="830" y="1392" type="curve" smooth="yes"/>
      <point x="1015" y="1392"/>
      <point x="1186" y="1322"/>
      <point x="1316" y="1192" type="curve" smooth="yes"/>
      <point x="1444" y="1064"/>
      <point x="1516" y="889"/>
      <point x="1516" y="708" type="curve" smooth="yes"/>
      <point x="1516" y="518"/>
      <point x="1442" y="351"/>
      <point x="1318" y="230" type="curve" smooth="yes"/>
      <point x="1189" y="104"/>
      <point x="1015" y="26"/>
    </contour>
  </outline>
</glyph>
<glyph name="AE" format="2">
  <advance width="1593"/>
  <unicode hex="00C6"/>
  <note>
AE
</note>
  <anchor x="820" y="-20" name="bottom"/>
  <anchor x="820" y="1450" name="top"/>
  <outline>
    <contour>
      <point x="35" y="0" type="line"/>
      <point x="71" y="0" type="line"/>
      <point x="919" y="1440" type="line"/>
      <point x="883" y="1440" type="line"/>
    </contour>
    <contour>
      <point x="331" y="459" type="line"/>
      <point x="943" y="459" type="line"/>
      <point x="943" y="486" type="line"/>
      <point x="331" y="486" type="line"/>
    </contour>
    <contour>
      <point x="910" y="0" type="line"/>
      <point x="1520" y="0" type="line"/>
      <point x="1520" y="27" type="line"/>
      <point x="941" y="27" type="line"/>
      <point x="970" y="10" type="line"/>
      <point x="970" y="745" type="line"/>
      <point x="942" y="715" type="line"/>
      <point x="1520" y="715" type="line"/>
      <point x="1520" y="742" type="line"/>
      <point x="942" y="742" type="line"/>
      <point x="970" y="722" type="line"/>
      <point x="970" y="1440" type="line"/>
      <point x="941" y="1413" type="line"/>
      <point x="1520" y="1413" type="line"/>
      <point x="1520" y="1440" type="line"/>
      <point x="910" y="1440" type="line"/>
    </contour>
  </outline>
</glyph>
<glyph name="Thorn" format="2">
  <advance width="1067"/>
  <unicode hex="00DE"/>
  <note>
Thorn
</note>
  <anchor x="547" y="0" name="bottom"/>
  <anchor x="547" y="1430" name="top"/>
  <outline>
    <contour>
      <point x="258" y="306" type="line"/>
      <point x="576" y="306" type="line" smooth="yes"/>
      <point x="690" y="306"/>
      <point x="798" y="350"/>
      <point x="877" y="425" type="curve" smooth="yes"/>
      <point x="964" y="507"/>
      <point x="1008" y="615"/>
      <point x="1008" y="730" type="curve" smooth="yes"/>
      <point x="1008" y="849"/>
      <point x="960" y="953"/>
      <point x="884" y="1028" type="curve" smooth="yes"/>
      <point x="801" y="1111"/>
      <point x="685" y="1160"/>
      <point x="560" y="1160" type="curve" smooth="yes"/>
      <point x="258" y="1160" type="line"/>
      <point x="258" y="1150" type="line"/>
      <point x="560" y="1150" type="line" smooth="yes"/>
      <point x="765" y="1150"/>
      <point x="940" y="969"/>
      <point x="940" y="729" type="curve" smooth="yes"/>
      <point x="940" y="482"/>
      <point x="756" y="316"/>
      <point x="560" y="316" type="curve" smooth="yes"/>
      <point x="258" y="316" type="line"/>
    </contour>
    <contour>
      <point x="174" y="0" type="line"/>
      <point x="260" y="0" type="line"/>
      <point x="260" y="1430" type="line"/>
      <point x="174" y="1430" type="line"/>
    </contour>
  </outline>
</glyph>
<glyph name="germandbls" format="2">
  <advance width="961"/>
  <unicode hex="00DF"/>
  <note>
germandbls
</note>
  <anchor x="490" y="0" name="bottom"/>
  <anchor x="490" y="914" name="top"/>
  <outline>
    <contour>
      <point x="619" y="-16" type="curve" smooth="yes"/>
      <point x="823" y="-16"/>
      <point x="933" y="92"/>
      <point x="933" y="263" type="curve" smooth="yes"/>
      <point x="933" y="413"/>
      <point x="832" y="488"/>
      <point x="648" y="528" type="curve" smooth="yes"/>
      <point x="492" y="562"/>
      <point x="399" y="601"/>
      <point x="399" y="738" type="curve" smooth="yes"/>
      <point x="399" y="838"/>
      <point x="464" y="887"/>
      <point x="538" y="934" type="curve" smooth="yes"/>
      <point x="637" y="998"/>
      <point x="753" y="1059"/>
      <point x="753" y="1235" type="curve" smooth="yes"/>
      <point x="753" y="1410"/>
      <point x="648" y="1523"/>
      <point x="447" y="1523" type="curve" smooth="yes"/>
      <point x="289" y="1523"/>
      <point x="164" y="1422"/>
      <point x="164" y="1155" type="curve" smooth="yes"/>
      <point x="164" y="0" type="line"/>
      <point x="236" y="0" type="line"/>
      <point x="236" y="1155" type="line" smooth="yes"/>
      <point x="236" y="1412"/>
      <point x="340" y="1510"/>
      <point x="454" y="1510" type="curve" smooth="yes"/>
      <point x="574" y="1510"/>
      <point x="678" y="1398"/>
      <point x="678" y="1215" type="curve" smooth="yes"/>
      <point x="678" y="1060"/>
      <point x="605" y="994"/>
      <point x="525" y="945" type="curve" smooth="yes"/>
      <point x="430" y="886"/>
      <point x="325" y="851"/>
      <point x="325" y="715" type="curve" smooth="yes"/>
      <point x="325" y="560"/>
      <point x="390" y="493"/>
      <point x="582" y="431" type="curve" smooth="yes"/>
      <point x="742" y="379"/>
      <point x="856" y="361"/>
      <point x="856" y="235" type="curve" smooth="yes"/>
      <point x="856" y="84"/>
      <point x="773" y="-3"/>
      <point x="618" y="-3" type="curve" smooth="yes"/>
      <point x="490" y="-3"/>
      <point x="404" y="63"/>
      <point x="339" y="139" type="curve"/>
      <point x="339" y="66" type="line"/>
      <point x="394" y="23"/>
      <point x="494" y="-16"/>
    </contour>
    <contour>
      <point x="24" y="900" type="line"/>
      <point x="191" y="900" type="line"/>
      <point x="191" y="910" type="line"/>
      <point x="24" y="910" type="line"/>
    </contour>
  </outline>
</glyph>
<glyph name="ae" format="2">
  <advance width="1843"/>
  <unicode hex="00E6"/>
  <note>
ae
</note>
  <anchor x="922" y="0" name="bottom"/>
  <anchor x="922" y="914" name="top"/>
  <outline>
    <contour>
      <point x="496" y="-24" type="curve" smooth="yes"/>
      <point x="690" y="-24"/>
      <point x="841" y="88"/>
      <point x="905" y="263" type="curve"/>
      <point x="898" y="273" type="line"/>
      <point x="898" y="0" type="line"/>
      <point x="970" y="0" type="line"/>
      <point x="970" y="910" type="line"/>
      <point x="898" y="910" type="line"/>
      <point x="898" y="642" type="line"/>
      <point x="905" y="652" type="line"/>
      <point x="841" y="830"/>
      <point x="690" y="939"/>
      <point x="496" y="939" type="curve" smooth="yes"/>
      <point x="238" y="939"/>
      <point x="52" y="741"/>
      <point x="52" y="457" type="curve" smooth="yes"/>
      <point x="52" y="174"/>
      <point x="238" y="-24"/>
    </contour>
    <contour>
      <point x="496" y="-11" type="curve" smooth="yes"/>
      <point x="274" y="-11"/>
      <point x="131" y="195"/>
      <point x="131" y="466" type="curve" smooth="yes"/>
      <point x="131" y="747"/>
      <point x="285" y="925"/>
      <point x="496" y="925" type="curve" smooth="yes"/>
      <point x="719" y="925"/>
      <point x="863" y="727"/>
      <point x="863" y="456" type="curve" smooth="yes"/>
      <point x="863" y="175"/>
      <point x="707" y="-11"/>
    </contour>
    <contour>
      <point x="1360" y="-24" type="curve" smooth="yes"/>
      <point x="1548" y="-24"/>
      <point x="1732" y="87"/>
      <point x="1781" y="262" type="curve"/>
      <point x="1709" y="262" type="line"/>
      <point x="1640" y="91"/>
      <point x="1517" y="-11"/>
      <point x="1360" y="-11" type="curve" smooth="yes"/>
      <point x="1154" y="-11"/>
      <point x="1006" y="170"/>
      <point x="1006" y="454" type="curve" smooth="yes"/>
      <point x="1006" y="753"/>
      <point x="1160" y="925"/>
      <point x="1360" y="925" type="curve" smooth="yes"/>
      <point x="1542" y="925"/>
      <point x="1702" y="783"/>
      <point x="1728" y="507" type="curve"/>
      <point x="1801" y="507" type="line"/>
      <point x="1781" y="781"/>
      <point x="1573" y="938"/>
      <point x="1360" y="938" type="curve" smooth="yes"/>
      <point x="1108" y="938"/>
      <point x="933" y="714"/>
      <point x="933" y="444" type="curve" smooth="yes"/>
      <point x="933" y="158"/>
      <point x="1120" y="-24"/>
    </contour>
    <contour>
      <point x="980" y="507" type="line"/>
      <point x="1744" y="507" type="line"/>
      <point x="1744" y="517" type="line"/>
      <point x="980" y="517" type="line"/>
    </contour>
  </outline>
</glyph>
<glyph name="lslash" format="2">
  <advance width="502"/>
  <unicode hex="0142"/>
  <outline>
    <contour>
      <point x="215" y="0" type="line"/>
      <point x="287" y="0" type="line"/>
      <point x="287" y="1514" type="line"/>
      <point x="215" y="1514" type="line"/>
    </contour>
    <contour>
      <point x="-1" y="648" type="line"/>
      <point x="503" y="853" type="line"/>
      <point x="503" y="866" type="line"/>
      <point x="-1" y="661" type="line"/>
    </contour>
  </outline>
</glyph>
<glyph name="Eng" format="2">
  <advance width="1489"/>
  <unicode hex="014A"/>
  <outline>
    <contour>
      <point x="1092" y="-353" type="curve" smooth="yes"/>
      <point x="1221" y="-353"/>
      <point x="1307" y="-245"/>
      <point x="1307" y="-100" type="curve" smooth="yes"/>
      <point x="1307" y="1430" type="line"/>
      <point x="1297" y="1430" type="line"/>
      <point x="1297" y="87" type="line"/>
      <point x="1303" y="106" type="line"/>
      <point x="178" y="1460" type="line"/>
      <point x="176" y="1460" type="line"/>
      <point x="176" y="0" type="line"/>
      <point x="186" y="0" type="line"/>
      <point x="186" y="1349" type="line"/>
      <point x="180" y="1330" type="line"/>
      <point x="1245" y="48" type="line" smooth="yes"/>
      <point x="1268" y="20"/>
      <point x="1297" y="-10"/>
      <point x="1297" y="-106" type="curve" smooth="yes"/>
      <point x="1297" y="-285"/>
      <point x="1171" y="-343"/>
      <point x="1093" y="-343" type="curve" smooth="yes"/>
      <point x="1034" y="-343"/>
      <point x="943" y="-297"/>
      <point x="907" y="-223" type="curve"/>
      <point x="907" y="-257" type="line"/>
      <point x="964" y="-330"/>
      <point x="1032" y="-353"/>
    </contour>
  </outline>
</glyph>
<glyph name="florin" format="2">
  <advance width="1079"/>
  <unicode hex="0192"/>
  <note>
florin
</note>
  <outline>
    <contour>
      <point x="479" y="354" type="line"/>
      <point x="521" y="354" type="line"/>
      <point x="663" y="943" type="line" smooth="yes"/>
      <point x="780" y="1429"/>
      <point x="777" y="1519"/>
      <point x="913" y="1519" type="curve"/>
      <point x="1010" y="1519"/>
      <point x="979" y="1445"/>
      <point x="980" y="1437" type="curve"/>
      <point x="1000" y="1462" type="line"/>
      <point x="999" y="1487"/>
      <point x="982" y="1531"/>
      <point x="913" y="1531" type="curve" smooth="yes"/>
      <point x="743" y="1531"/>
      <point x="720" y="1355"/>
      <point x="672" y="1155" type="curve" smooth="yes"/>
    </contour>
    <contour>
      <point x="166" y="-495" type="curve" smooth="yes"/>
      <point x="336" y="-495"/>
      <point x="359" y="-319"/>
      <point x="407" y="-119" type="curve" smooth="yes"/>
      <point x="600" y="682" type="line"/>
      <point x="558" y="682" type="line"/>
      <point x="416" y="93" type="line" smooth="yes"/>
      <point x="299" y="-393"/>
      <point x="302" y="-483"/>
      <point x="166" y="-483" type="curve"/>
      <point x="69" y="-483"/>
      <point x="100" y="-409"/>
      <point x="99" y="-401" type="curve"/>
      <point x="79" y="-426" type="line"/>
      <point x="80" y="-451"/>
      <point x="97" y="-495"/>
    </contour>
    <contour>
      <point x="457" y="900" type="line"/>
      <point x="813" y="900" type="line"/>
      <point x="817" y="910" type="line"/>
      <point x="461" y="910" type="line"/>
    </contour>
  </outline>
</glyph>
<glyph name="gravecomb" format="2">
  <unicode hex="0300"/>
  <note>
grave
</note>
  <anchor x="91" y="914" name="_top"/>
  <anchor x="91" y="1316" name="top"/>
  <outline>
    <contour>
      <point x="175" y="1063" type="curve"/>
      <point x="181" y="1063" type="line"/>
      <point x="155" y="1114"/>
      <point x="77" y="1259"/>
      <point x="55" y="1316" type="curve"/>
      <point x="0" y="1316" type="line"/>
      <point x="30" y="1247"/>
      <point x="85" y="1169"/>
    </contour>
  </outline>
</glyph>
<glyph name="dotaccentcomb" format="2">
  <unicode hex="0307"/>
  <anchor x="117" y="914" name="_top"/>
  <anchor x="117" y="1239" name="top"/>
  <outline>
    <contour>
      <point x="117" y="1147" type="curve" smooth="yes"/>
      <point x="143" y="1147"/>
      <point x="164" y="1166"/>
      <point x="164" y="1193" type="curve" smooth="yes"/>
      <point x="164" y="1221"/>
      <point x="142" y="1239"/>
      <point x="117" y="1239" type="curve" smooth="yes"/>
      <point x="92" y="1239"/>
      <point x="70" y="1221"/>
      <point x="70" y="1193" type="curve" smooth="yes"/>
      <point x="70" y="1166"/>
      <point x="91" y="1147"/>
    </contour>
  </outline>
</glyph>
<glyph name="ringcomb" format="2">
  <unicode hex="030A"/>
  <note>
ring
</note>
  <anchor x="234" y="914" name="_top"/>
  <anchor x="234" y="1379" name="top"/>
  <outline>
    <contour>
      <point x="233" y="1101" type="curve" smooth="yes"/>
      <point x="308" y="1101"/>
      <point x="370" y="1162"/>
      <point x="370" y="1236" type="curve" smooth="yes"/>
      <point x="370" y="1309"/>
      <point x="308" y="1371"/>
      <point x="233" y="1371" type="curve" smooth="yes"/>
      <point x="157" y="1371"/>
      <point x="96" y="1310"/>
      <point x="96" y="1236" type="curve" smooth="yes"/>
      <point x="96" y="1161"/>
      <point x="157" y="1101"/>
    </contour>
    <contour>
      <point x="233" y="1113" type="curve" smooth="yes"/>
      <point x="174" y="1113"/>
      <point x="124" y="1169"/>
      <point x="124" y="1236" type="curve" smooth="yes"/>
      <point x="124" y="1303"/>
      <point x="174" y="1359"/>
      <point x="233" y="1359" type="curve" smooth="yes"/>
      <point x="292" y="1359"/>
      <point x="342" y="1303"/>
      <point x="342" y="1236" type="curve" smooth="yes"/>
      <point x="342" y="1169"/>
      <point x="292" y="1113"/>
    </contour>
  </outline>
</glyph>
<glyph name="ogonekcomb" format="2">
  <unicode hex="0328"/>
  <anchor x="238" y="0" name="_ogonek"/>
  <outline>
    <contour>
      <point x="165" y="-298" type="curve" smooth="yes"/>
      <point x="186" y="-298"/>
      <point x="242" y="-295"/>
      <point x="318" y="-253" type="curve"/>
      <point x="318" y="-235" type="line"/>
      <point x="254" y="-264"/>
      <point x="215" y="-268"/>
      <point x="194" y="-268" type="curve" smooth="yes"/>
      <point x="142" y="-268"/>
      <point x="90" y="-247"/>
      <point x="90" y="-182" type="curve" smooth="yes"/>
      <point x="90" y="-135"/>
      <point x="118" y="-64"/>
      <point x="254" y="0" type="curve"/>
      <point x="224" y="0" type="line" smooth="yes"/>
      <point x="190" y="0"/>
      <point x="45" y="-72"/>
      <point x="45" y="-182" type="curve" smooth="yes"/>
      <point x="45" y="-211"/>
      <point x="52" y="-298"/>
    </contour>
  </outline>
</glyph>
<glyph name="strokelongcomb" format="2">
  <unicode hex="0336"/>
  <anchor x="279.0" y="751.0" name="_center"/>
  <outline>
    <contour>
      <point x="52" y="737" type="line"/>
      <point x="507" y="737" type="line"/>
      <point x="507" y="765" type="line"/>
      <point x="52" y="765" type="line"/>
    </contour>
  </outline>
</glyph>
<glyph name="slashshortcomb" format="2">
  <unicode hex="0337"/>
  <anchor x="268" y="710.0" name="_center"/>
  <outline>
    <contour>
      <point x="37" y="569" type="line"/>
      <point x="501" y="850" type="line"/>
      <point x="489" y="869" type="line"/>
      <point x="25" y="588" type="line"/>
    </contour>
  </outline>
</glyph>
<glyph name="Nje-cy" format="2">
  <advance width="2103"/>
  <unicode hex="040A"/>
  <outline>
    <contour>
      <point x="174" y="0" type="line"/>
      <point x="260" y="0" type="line"/>
      <point x="260" y="733" type="line"/>
      <point x="253" y="727" type="line"/>
      <point x="1175" y="727" type="line"/>
      <point x="1168" y="733" type="line"/>
      <point x="1168" y="0" type="line"/>
      <point x="1254" y="0" type="line"/>
      <point x="1254" y="1430" type="line"/>
      <point x="1168" y="1430" type="line"/>
      <point x="1168" y="731" type="line"/>
      <point x="1175" y="737" type="line"/>
      <point x="253" y="737" type="line"/>
      <point x="260" y="731" type="line"/>
      <point x="260" y="1430" type="line"/>
      <point x="174" y="1430" type="line"/>
    </contour>
    <contour>
      <point x="1215" y="10" type="line"/>
      <point x="1168" y="0" type="line"/>
      <point x="1566" y="0" type="line" smooth="yes"/>
      <point x="1686" y="0"/>
      <point x="1798" y="45"/>
      <point x="1880" y="122" type="curve" smooth="yes"/>
      <point x="1962" y="199"/>
      <point x="2014" y="306"/>
      <point x="2014" y="430" type="curve" smooth="yes"/>
      <point x="2014" y="553"/>
      <point x="1963" y="660"/>
      <point x="1883" y="735" type="curve" smooth="yes"/>
      <point x="1803" y="810"/>
      <point x="1696" y="854"/>
      <point x="1582" y="854" type="curve" smooth="yes"/>
      <point x="1225" y="854" type="line"/>
      <point x="1225" y="844" type="line"/>
      <point x="1566" y="844" type="line" smooth="yes"/>
      <point x="1762" y="844"/>
      <point x="1946" y="678"/>
      <point x="1946" y="431" type="curve" smooth="yes"/>
      <point x="1946" y="191"/>
      <point x="1771" y="10"/>
      <point x="1566" y="10" type="curve" smooth="yes"/>
    </contour>
  </outline>
</glyph>
<glyph name="Tshe-cy" format="2">
  <advance width="1402"/>
  <unicode hex="040B"/>
  <outline>
    <contour>
      <point x="507" y="1430" type="line"/>
      <point x="421" y="1430" type="line"/>
      <point x="421" y="0" type="line"/>
      <point x="507" y="0" type="line"/>
      <point x="507" y="427" type="line" smooth="yes"/>
      <point x="507" y="662"/>
      <point x="674" y="816"/>
      <point x="903" y="816" type="curve" smooth="yes"/>
      <point x="1110" y="816"/>
      <point x="1203" y="691"/>
      <point x="1203" y="436" type="curve" smooth="yes"/>
      <point x="1203" y="0" type="line"/>
      <point x="1289" y="0" type="line"/>
      <point x="1289" y="442" type="line" smooth="yes"/>
      <point x="1289" y="704"/>
      <point x="1161" y="832"/>
      <point x="917" y="832" type="curve" smooth="yes"/>
      <point x="683" y="832"/>
      <point x="501" y="714"/>
      <point x="493" y="436" type="curve"/>
      <point x="507" y="486" type="line"/>
    </contour>
    <contour>
      <point x="67" y="1420" type="line"/>
      <point x="861" y="1420" type="line"/>
      <point x="861" y="1430" type="line"/>
      <point x="67" y="1430" type="line"/>
    </contour>
  </outline>
</glyph>
<glyph name="Be-cy" format="2">
  <advance width="1181"/>
  <unicode hex="0411"/>
  <outline>
    <contour>
      <point x="175" y="0" type="line"/>
      <point x="587" y="0" type="line" smooth="yes"/>
      <point x="919" y="0"/>
      <point x="1092" y="116"/>
      <point x="1092" y="382" type="curve" smooth="yes"/>
      <point x="1092" y="648"/>
      <point x="919" y="764"/>
      <point x="587" y="764" type="curve" smooth="yes"/>
      <point x="208" y="763" type="line"/>
      <point x="247" y="724" type="line"/>
      <point x="247" y="1430" type="line"/>
      <point x="175" y="1430" type="line"/>
    </contour>
    <contour>
      <point x="247" y="3" type="line"/>
      <point x="247" y="792" type="line"/>
      <point x="208" y="753" type="line"/>
      <point x="564" y="754" type="line" smooth="yes"/>
      <point x="868" y="754"/>
      <point x="997" y="660"/>
      <point x="997" y="382" type="curve" smooth="yes"/>
      <point x="997" y="104"/>
      <point x="868" y="10"/>
      <point x="564" y="10" type="curve" smooth="yes"/>
      <point x="208" y="10" type="line"/>
    </contour>
    <contour>
      <point x="925" y="1420" type="line"/>
      <point x="925" y="1430" type="line"/>
      <point x="175" y="1430" type="line"/>
      <point x="175" y="1420" type="line"/>
    </contour>
  </outline>
</glyph>
<glyph name="Zhe-cy" format="2">
  <advance width="1580"/>
  <unicode hex="0416"/>
  <anchor x="1560" y="0" name="bottomright"/>
  <anchor x="790" y="1430" name="top"/>
  <outline>
    <contour>
      <point x="1442" y="0" type="line"/>
      <point x="1508" y="0" type="line"/>
      <point x="943" y="749" type="line"/>
      <point x="906" y="731" type="line"/>
    </contour>
    <contour>
      <point x="750" y="0" type="line"/>
      <point x="830" y="0" type="line"/>
      <point x="830" y="1430" type="line"/>
      <point x="750" y="1430" type="line"/>
    </contour>
    <contour>
      <point x="804" y="728" type="line"/>
      <point x="942" y="728" type="line"/>
      <point x="942" y="738" type="line"/>
      <point x="804" y="738" type="line"/>
    </contour>
    <contour>
      <point x="908" y="731" type="line"/>
      <point x="951" y="737" type="line"/>
      <point x="1451" y="1430" type="line"/>
      <point x="1409" y="1430" type="line"/>
    </contour>
    <contour>
      <point x="138" y="0" type="line"/>
      <point x="675" y="731" type="line"/>
      <point x="637" y="749" type="line"/>
      <point x="72" y="0" type="line"/>
    </contour>
    <contour>
      <point x="776" y="728" type="line"/>
      <point x="776" y="738" type="line"/>
      <point x="648" y="738" type="line"/>
      <point x="648" y="728" type="line"/>
    </contour>
    <contour>
      <point x="672" y="731" type="line"/>
      <point x="171" y="1430" type="line"/>
      <point x="129" y="1430" type="line"/>
      <point x="629" y="737" type="line"/>
    </contour>
  </outline>
</glyph>
<glyph name="Ze-cy" format="2">
  <advance width="1080"/>
  <unicode hex="0417"/>
  <anchor x="540" y="0" name="bottom"/>
  <anchor x="540" y="1430" name="top"/>
  <outline>
    <contour>
      <point x="492" y="-33" type="curve" smooth="yes"/>
      <point x="841" y="-33"/>
      <point x="991" y="90"/>
      <point x="991" y="378" type="curve" smooth="yes"/>
      <point x="991" y="614"/>
      <point x="866" y="769"/>
      <point x="575" y="764" type="curve"/>
      <point x="570" y="758" type="line"/>
      <point x="814" y="735"/>
      <point x="919" y="878"/>
      <point x="919" y="1100" type="curve" smooth="yes"/>
      <point x="919" y="1348"/>
      <point x="802" y="1455"/>
      <point x="528" y="1455" type="curve" smooth="yes"/>
      <point x="359" y="1455"/>
      <point x="204" y="1376"/>
      <point x="135" y="1230" type="curve"/>
      <point x="183" y="1180" type="line"/>
      <point x="219" y="1357"/>
      <point x="357" y="1441"/>
      <point x="524" y="1441" type="curve" smooth="yes"/>
      <point x="742" y="1441"/>
      <point x="835" y="1339"/>
      <point x="835" y="1102" type="curve" smooth="yes"/>
      <point x="835" y="868"/>
      <point x="734" y="767"/>
      <point x="498" y="767" type="curve" smooth="yes"/>
      <point x="427" y="767" type="line"/>
      <point x="427" y="757" type="line"/>
      <point x="503" y="757" type="line" smooth="yes"/>
      <point x="777" y="757"/>
      <point x="894" y="642"/>
      <point x="894" y="374" type="curve" smooth="yes"/>
      <point x="894" y="98"/>
      <point x="775" y="-21"/>
      <point x="498" y="-21" type="curve" smooth="yes"/>
      <point x="287" y="-21"/>
      <point x="120" y="125"/>
      <point x="102" y="285" type="curve"/>
      <point x="41" y="266" type="line"/>
      <point x="71" y="103"/>
      <point x="259" y="-33"/>
    </contour>
  </outline>
</glyph>
<glyph name="Ii-cy" format="2">
  <advance width="1479"/>
  <unicode hex="0418"/>
  <anchor x="739" y="0" name="bottom"/>
  <anchor x="1459" y="0" name="bottomright"/>
  <anchor x="740" y="1430" name="top"/>
  <outline>
    <contour>
      <point x="1305" y="0" type="line"/>
      <point x="1305" y="1460" type="line"/>
      <point x="1303" y="1460" type="line"/>
      <point x="181" y="110" type="line"/>
      <point x="184" y="105" type="line"/>
      <point x="184" y="1430" type="line"/>
      <point x="174" y="1430" type="line"/>
      <point x="174" y="-24" type="line"/>
      <point x="177" y="-24" type="line"/>
      <point x="1301" y="1329" type="line"/>
      <point x="1295" y="1405" type="line"/>
      <point x="1295" y="0" type="line"/>
    </contour>
  </outline>
</glyph>
<glyph name="Pe-cy" format="2">
  <advance width="1470"/>
  <unicode hex="041F"/>
  <anchor x="1450" y="0" name="bottomright"/>
  <outline>
    <contour>
      <point x="175" y="0" type="line"/>
      <point x="261" y="0" type="line"/>
      <point x="261" y="1420" type="line"/>
      <point x="1209" y="1420" type="line"/>
      <point x="1209" y="0" type="line"/>
      <point x="1295" y="0" type="line"/>
      <point x="1295" y="1430" type="line"/>
      <point x="175" y="1430" type="line"/>
    </contour>
  </outline>
</glyph>
<glyph name="U-cy" format="2">
  <advance width="850"/>
  <unicode hex="0423"/>
  <guideline x="800" y="945" angle="68.42279999999994"/>
  <guideline x="797" y="965" angle="248.41139999999996"/>
  <anchor x="425" y="1430" name="top"/>
  <outline>
    <contour>
      <point x="168" y="0" type="line"/>
      <point x="200" y="0" type="line"/>
      <point x="272" y="0"/>
      <point x="325" y="56"/>
      <point x="366" y="172" type="curve" smooth="yes"/>
      <point x="803" y="1430" type="line"/>
      <point x="793" y="1430" type="line"/>
      <point x="367" y="204" type="line" smooth="yes"/>
      <point x="320" y="72"/>
      <point x="272" y="16"/>
      <point x="208" y="16" type="curve" smooth="yes"/>
      <point x="168" y="16" type="line"/>
    </contour>
    <contour>
      <point x="463" y="461" type="line"/>
      <point x="491" y="546" type="line"/>
      <point x="109" y="1430" type="line"/>
      <point x="44" y="1430" type="line"/>
    </contour>
  </outline>
</glyph>
<glyph name="Sha-cy" format="2">
  <advance width="1670"/>
  <unicode hex="0428"/>
  <outline>
    <contour>
      <point x="175" y="0" type="line"/>
      <point x="1495" y="0" type="line"/>
      <point x="1495" y="1430" type="line"/>
      <point x="1409" y="1430" type="line"/>
      <point x="1409" y="10" type="line"/>
      <point x="261" y="10" type="line"/>
      <point x="261" y="1430" type="line"/>
      <point x="175" y="1430" type="line"/>
    </contour>
    <contour>
      <point x="803" y="0" type="line"/>
      <point x="889" y="0" type="line"/>
      <point x="889" y="1430" type="line"/>
      <point x="803" y="1430" type="line"/>
    </contour>
  </outline>
</glyph>
<glyph name="Softsign-cy" format="2">
  <advance width="1098"/>
  <unicode hex="042C"/>
  <outline>
    <contour>
      <point x="175" y="0" type="line"/>
      <point x="561" y="0" type="line" smooth="yes"/>
      <point x="681" y="0"/>
      <point x="793" y="45"/>
      <point x="875" y="122" type="curve" smooth="yes"/>
      <point x="957" y="198"/>
      <point x="1009" y="306"/>
      <point x="1009" y="430" type="curve" smooth="yes"/>
      <point x="1009" y="553"/>
      <point x="958" y="660"/>
      <point x="878" y="735" type="curve" smooth="yes"/>
      <point x="798" y="810"/>
      <point x="691" y="854"/>
      <point x="577" y="854" type="curve" smooth="yes"/>
      <point x="222" y="854" type="line"/>
      <point x="261" y="852" type="line"/>
      <point x="261" y="1430" type="line"/>
      <point x="175" y="1430" type="line"/>
    </contour>
    <contour>
      <point x="261" y="6" type="line"/>
      <point x="261" y="846" type="line"/>
      <point x="222" y="844" type="line"/>
      <point x="561" y="844" type="line" smooth="yes"/>
      <point x="757" y="844"/>
      <point x="941" y="678"/>
      <point x="941" y="431" type="curve" smooth="yes"/>
      <point x="941" y="191"/>
      <point x="766" y="10"/>
      <point x="561" y="10" type="curve" smooth="yes"/>
      <point x="222" y="10" type="line"/>
    </contour>
  </outline>
</glyph>
<glyph name="be-cy" format="2">
  <advance width="1045"/>
  <unicode hex="0431"/>
  <outline>
    <contour>
      <point x="533" y="-24" type="curve" smooth="yes"/>
      <point x="801" y="-24"/>
      <point x="992" y="172"/>
      <point x="992" y="454" type="curve" smooth="yes"/>
      <point x="992" y="735"/>
      <point x="802" y="938"/>
      <point x="533" y="938" type="curve" smooth="yes"/>
      <point x="368" y="938"/>
      <point x="232" y="861"/>
      <point x="153" y="736" type="curve"/>
      <point x="169" y="720" type="line"/>
      <point x="228" y="965"/>
      <point x="320" y="1199"/>
      <point x="506" y="1278" type="curve" smooth="yes"/>
      <point x="649" y="1339"/>
      <point x="792" y="1286"/>
      <point x="894" y="1429" type="curve"/>
      <point x="834" y="1450" type="line"/>
      <point x="784" y="1337"/>
      <point x="657" y="1351"/>
      <point x="526" y="1301" type="curve" smooth="yes"/>
      <point x="292" y="1211"/>
      <point x="76" y="927"/>
      <point x="76" y="454" type="curve" smooth="yes"/>
      <point x="76" y="173"/>
      <point x="264" y="-24"/>
    </contour>
    <contour>
      <point x="533" y="-11" type="curve" smooth="yes"/>
      <point x="302" y="-11"/>
      <point x="153" y="193"/>
      <point x="153" y="463" type="curve" smooth="yes"/>
      <point x="153" y="741"/>
      <point x="312" y="925"/>
      <point x="533" y="925" type="curve" smooth="yes"/>
      <point x="763" y="925"/>
      <point x="915" y="723"/>
      <point x="915" y="453" type="curve" smooth="yes"/>
      <point x="915" y="175"/>
      <point x="753" y="-11"/>
    </contour>
  </outline>
</glyph>
<glyph name="ve-cy" format="2">
  <advance width="848"/>
  <unicode hex="0432"/>
  <outline>
    <contour>
      <point x="129" y="0" type="line"/>
      <point x="411" y="0" type="line" smooth="yes"/>
      <point x="626" y="0"/>
      <point x="785" y="48"/>
      <point x="785" y="246" type="curve" smooth="yes"/>
      <point x="785" y="407"/>
      <point x="687" y="488"/>
      <point x="473" y="489" type="curve"/>
      <point x="474" y="487" type="line"/>
      <point x="654" y="490"/>
      <point x="746" y="567"/>
      <point x="746" y="685" type="curve" smooth="yes"/>
      <point x="746" y="820"/>
      <point x="629" y="910"/>
      <point x="434" y="910" type="curve" smooth="yes"/>
      <point x="129" y="910" type="line"/>
    </contour>
    <contour>
      <point x="201" y="7" type="line"/>
      <point x="201" y="484" type="line"/>
      <point x="170" y="481" type="line"/>
      <point x="426" y="481" type="line" smooth="yes"/>
      <point x="579" y="481"/>
      <point x="704" y="455"/>
      <point x="704" y="252" type="curve" smooth="yes"/>
      <point x="704" y="65"/>
      <point x="596" y="10"/>
      <point x="394" y="10" type="curve" smooth="yes"/>
      <point x="165" y="10" type="line"/>
    </contour>
    <contour>
      <point x="201" y="488" type="line"/>
      <point x="201" y="903" type="line"/>
      <point x="159" y="900" type="line"/>
      <point x="410" y="900" type="line" smooth="yes"/>
      <point x="617" y="900"/>
      <point x="672" y="796"/>
      <point x="672" y="682" type="curve" smooth="yes"/>
      <point x="672" y="519"/>
      <point x="554" y="491"/>
      <point x="422" y="491" type="curve" smooth="yes"/>
      <point x="171" y="491" type="line"/>
    </contour>
  </outline>
</glyph>
<glyph name="ge-cy" format="2">
  <advance width="685"/>
  <unicode hex="0433"/>
  <anchor x="665" y="0" name="bottomright"/>
  <anchor x="168" y="495" name="center"/>
  <anchor x="343" y="910" name="top"/>
  <outline>
    <contour>
      <point x="129" y="910" type="line"/>
      <point x="129" y="0" type="line"/>
      <point x="209" y="0" type="line"/>
      <point x="209" y="905" type="line"/>
      <point x="171" y="900" type="line"/>
      <point x="685" y="900" type="line"/>
      <point x="685" y="910" type="line"/>
    </contour>
  </outline>
</glyph>
<glyph name="zhe-cy" format="2">
  <advance width="1089"/>
  <unicode hex="0436"/>
  <anchor x="1069" y="0" name="bottomright"/>
  <anchor x="545" y="910" name="top"/>
  <outline>
    <contour>
      <point x="1004" y="0" type="line"/>
      <point x="1070" y="0" type="line"/>
      <point x="674" y="486" type="line"/>
      <point x="634" y="464" type="line"/>
    </contour>
    <contour>
      <point x="508" y="0" type="line"/>
      <point x="581" y="0" type="line"/>
      <point x="581" y="910" type="line"/>
      <point x="508" y="910" type="line"/>
    </contour>
    <contour>
      <point x="547" y="461" type="line"/>
      <point x="679" y="461" type="line"/>
      <point x="679" y="471" type="line"/>
      <point x="547" y="471" type="line"/>
    </contour>
    <contour>
      <point x="638" y="466" type="line"/>
      <point x="679" y="462" type="line"/>
      <point x="1029" y="910" type="line"/>
      <point x="984" y="910" type="line"/>
    </contour>
    <contour>
      <point x="85" y="0" type="line"/>
      <point x="456" y="464" type="line"/>
      <point x="415" y="486" type="line"/>
      <point x="19" y="0" type="line"/>
    </contour>
    <contour>
      <point x="542" y="461" type="line"/>
      <point x="542" y="471" type="line"/>
      <point x="416" y="471" type="line"/>
      <point x="416" y="461" type="line"/>
    </contour>
    <contour>
      <point x="451" y="466" type="line"/>
      <point x="104" y="910" type="line"/>
      <point x="60" y="910" type="line"/>
      <point x="410" y="462" type="line"/>
    </contour>
  </outline>
</glyph>
<glyph name="el-cy" format="2">
  <advance width="921"/>
  <unicode hex="043B"/>
  <outline>
    <contour>
      <point x="720" y="0" type="line"/>
      <point x="792" y="0" type="line"/>
      <point x="792" y="912" type="line"/>
      <point x="321" y="912" type="line"/>
      <point x="321" y="902" type="line"/>
      <point x="776" y="902" type="line"/>
      <point x="720" y="904" type="line"/>
    </contour>
    <contour>
      <point x="7" y="0" type="line"/>
      <point x="56" y="0" type="line" smooth="yes"/>
      <point x="152" y="0"/>
      <point x="228" y="112"/>
      <point x="283" y="406" type="curve" smooth="yes"/>
      <point x="315" y="573"/>
      <point x="327" y="732"/>
      <point x="335" y="903" type="curve"/>
      <point x="321" y="903" type="line"/>
      <point x="314" y="737"/>
      <point x="298" y="549"/>
      <point x="263" y="380" type="curve" smooth="yes"/>
      <point x="225" y="201"/>
      <point x="169" y="60"/>
      <point x="53" y="60" type="curve" smooth="yes"/>
      <point x="7" y="60" type="line"/>
    </contour>
  </outline>
</glyph>
<glyph name="em-cy" format="2">
  <advance width="1178"/>
  <unicode hex="043C"/>
  <outline>
    <contour>
      <point x="129" y="0" type="line"/>
      <point x="143" y="0" type="line"/>
      <point x="143" y="894" type="line"/>
      <point x="139" y="887" type="line"/>
      <point x="593" y="0" type="line"/>
      <point x="1004" y="889" type="line"/>
      <point x="977" y="884" type="line"/>
      <point x="977" y="0" type="line"/>
      <point x="1049" y="0" type="line"/>
      <point x="1049" y="910" type="line"/>
      <point x="982" y="910" type="line"/>
      <point x="615" y="109" type="line"/>
      <point x="626" y="109" type="line"/>
      <point x="217" y="910" type="line"/>
      <point x="129" y="910" type="line"/>
    </contour>
  </outline>
</glyph>
<glyph name="pe-cy" format="2">
  <advance width="1013"/>
  <unicode hex="043F"/>
  <anchor x="993" y="0" name="bottomright"/>
  <outline>
    <contour>
      <point x="129" y="0" type="line"/>
      <point x="201" y="0" type="line"/>
      <point x="201" y="900" type="line"/>
      <point x="812" y="900" type="line"/>
      <point x="812" y="0" type="line"/>
      <point x="884" y="0" type="line"/>
      <point x="884" y="910" type="line"/>
      <point x="129" y="910" type="line"/>
    </contour>
  </outline>
</glyph>
<glyph name="tse-cy" format="2">
  <advance width="1040"/>
  <unicode hex="0446"/>
  <anchor x="992" y="910" name="bottomright"/>
  <outline>
    <contour>
      <point x="963" y="0" type="line"/>
      <point x="963" y="10" type="line"/>
      <point x="825" y="10" type="line"/>
      <point x="825" y="0" type="line"/>
    </contour>
    <component base="pe-cy" yScale="-1" xOffset="-1" yOffset="910"/>
    <component base="_cyrillicdescender01" xScale="-1" xOffset="1016"/>
  </outline>
</glyph>
<glyph name="sha-cy" format="2">
  <advance width="1179"/>
  <unicode hex="0448"/>
  <anchor x="1039" y="0" name="bottomright"/>
  <outline>
    <contour>
      <point x="129" y="0" type="line"/>
      <point x="1050" y="0" type="line"/>
      <point x="1050" y="910" type="line"/>
      <point x="978" y="910" type="line"/>
      <point x="978" y="10" type="line"/>
      <point x="201" y="10" type="line"/>
      <point x="201" y="910" type="line"/>
      <point x="129" y="910" type="line"/>
    </contour>
    <contour>
      <point x="560" y="0" type="line"/>
      <point x="632" y="0" type="line"/>
      <point x="632" y="910" type="line"/>
      <point x="560" y="910" type="line"/>
    </contour>
  </outline>
</glyph>
<glyph name="softsign-cy" format="2">
  <advance width="745"/>
  <unicode hex="044C"/>
  <outline>
    <contour>
      <point x="129" y="0" type="line"/>
      <point x="390" y="0" type="line" smooth="yes"/>
      <point x="569" y="0"/>
      <point x="719" y="102"/>
      <point x="719" y="267" type="curve" smooth="yes"/>
      <point x="719" y="430"/>
      <point x="580" y="538"/>
      <point x="401" y="538" type="curve" smooth="yes"/>
      <point x="156" y="538" type="line"/>
      <point x="201" y="534" type="line"/>
      <point x="201" y="910" type="line"/>
      <point x="129" y="910" type="line"/>
    </contour>
    <contour>
      <point x="201" y="6" type="line"/>
      <point x="201" y="533" type="line"/>
      <point x="156" y="528" type="line"/>
      <point x="386" y="528" type="line" smooth="yes"/>
      <point x="524" y="528"/>
      <point x="641" y="427"/>
      <point x="641" y="270" type="curve" smooth="yes"/>
      <point x="641" y="118"/>
      <point x="528" y="10"/>
      <point x="385" y="10" type="curve" smooth="yes"/>
      <point x="150" y="10" type="line"/>
    </contour>
  </outline>
</glyph>
<glyph name="ereversed-cy" format="2">
  <advance width="935"/>
  <unicode hex="044D"/>
  <anchor x="474" y="929" name="top"/>
  <outline>
    <contour>
      <point x="408" y="-26" type="curve" smooth="yes"/>
      <point x="669" y="-26"/>
      <point x="883" y="161"/>
      <point x="883" y="454" type="curve" smooth="yes"/>
      <point x="883" y="745"/>
      <point x="668" y="936"/>
      <point x="408" y="936" type="curve" smooth="yes"/>
      <point x="248" y="936"/>
      <point x="119" y="864"/>
      <point x="43" y="721" type="curve"/>
      <point x="98" y="720" type="line"/>
      <point x="181" y="858"/>
      <point x="289" y="925"/>
      <point x="409" y="925" type="curve" smooth="yes"/>
      <point x="614" y="925"/>
      <point x="807" y="728"/>
      <point x="807" y="456" type="curve" smooth="yes"/>
      <point x="807" y="192"/>
      <point x="616" y="-15"/>
      <point x="405" y="-15" type="curve" smooth="yes"/>
      <point x="286" y="-15"/>
      <point x="189" y="50"/>
      <point x="93" y="192" type="curve"/>
      <point x="35" y="191" type="line"/>
      <point x="125" y="51"/>
      <point x="240" y="-26"/>
    </contour>
    <contour>
      <point x="803" y="450" type="line"/>
      <point x="809" y="461" type="line"/>
      <point x="308" y="461" type="line"/>
      <point x="303" y="451" type="line"/>
    </contour>
  </outline>
</glyph>
<glyph name="Yat-cy" format="2">
  <advance width="1005"/>
  <unicode hex="0462"/>
  <outline>
    <contour>
      <point x="205" y="0" type="line"/>
      <point x="535" y="0" type="line" smooth="yes"/>
      <point x="635" y="0"/>
      <point x="731" y="37"/>
      <point x="802" y="106" type="curve" smooth="yes"/>
      <point x="868" y="170"/>
      <point x="916" y="266"/>
      <point x="916" y="374" type="curve" smooth="yes"/>
      <point x="916" y="481"/>
      <point x="869" y="576"/>
      <point x="804" y="639" type="curve" smooth="yes"/>
      <point x="736" y="706"/>
      <point x="643" y="743"/>
      <point x="548" y="743" type="curve" smooth="yes"/>
      <point x="252" y="743" type="line"/>
      <point x="291" y="742" type="line"/>
      <point x="291" y="1430" type="line"/>
      <point x="205" y="1430" type="line"/>
    </contour>
    <contour>
      <point x="291" y="6" type="line"/>
      <point x="291" y="736" type="line"/>
      <point x="252" y="733" type="line"/>
      <point x="535" y="733" type="line" smooth="yes"/>
      <point x="698" y="733"/>
      <point x="848" y="590"/>
      <point x="848" y="375" type="curve" smooth="yes"/>
      <point x="848" y="166"/>
      <point x="705" y="10"/>
      <point x="535" y="10" type="curve" smooth="yes"/>
      <point x="252" y="10" type="line"/>
    </contour>
    <contour>
      <point x="42" y="1279" type="line"/>
      <point x="460" y="1279" type="line"/>
      <point x="460" y="1289" type="line"/>
      <point x="42" y="1289" type="line"/>
    </contour>
  </outline>
</glyph>
<glyph name="Fita-cy" format="2">
  <advance width="1568"/>
  <unicode hex="0472"/>
  <anchor x="784" y="0" name="bottom"/>
  <anchor x="784" y="715" name="center"/>
  <anchor x="956" y="0" name="ogonek"/>
  <anchor x="784" y="1430" name="top"/>
  <anchor x="30" y="1430" name="topleft"/>
  <anchor x="1408" y="1430" name="topright"/>
  <outline>
    <contour>
      <point x="1050" y="659" type="curve" smooth="yes"/>
      <point x="1245" y="659"/>
      <point x="1388" y="699"/>
      <point x="1431" y="762" type="curve"/>
      <point x="1431" y="752" type="line"/>
      <point x="1351" y="720"/>
      <point x="1279" y="679"/>
      <point x="1124" y="679" type="curve" smooth="yes"/>
      <point x="794" y="679"/>
      <point x="806" y="775"/>
      <point x="522" y="775" type="curve" smooth="yes"/>
      <point x="324" y="775"/>
      <point x="173" y="731"/>
      <point x="134" y="664" type="curve"/>
      <point x="134" y="675" type="line"/>
      <point x="218" y="709"/>
      <point x="293" y="753"/>
      <point x="447" y="753" type="curve" smooth="yes"/>
      <point x="777" y="753"/>
      <point x="766" y="659"/>
    </contour>
    <component base="O"/>
  </outline>
</glyph>
<glyph name="Shha-cy" format="2">
  <advance width="1115"/>
  <unicode hex="04BA"/>
  <anchor x="1095" y="0" name="bottomright"/>
  <outline>
    <contour>
      <point x="175" y="0" type="line"/>
      <point x="260" y="0" type="line"/>
      <point x="264" y="531" type="line" smooth="yes"/>
      <point x="265" y="616"/>
      <point x="402" y="822"/>
      <point x="643" y="822" type="curve" smooth="yes"/>
      <point x="866" y="822"/>
      <point x="939" y="647"/>
      <point x="939" y="310" type="curve" smooth="yes"/>
      <point x="939" y="0" type="line"/>
      <point x="1025" y="0" type="line"/>
      <point x="1025" y="316" type="line" smooth="yes"/>
      <point x="1025" y="694"/>
      <point x="908" y="836"/>
      <point x="659" y="836" type="curve" smooth="yes"/>
      <point x="402" y="836"/>
      <point x="239" y="685"/>
      <point x="235" y="414" type="curve"/>
      <point x="261" y="490" type="line"/>
      <point x="261" y="1430" type="line"/>
      <point x="175" y="1430" type="line"/>
    </contour>
  </outline>
</glyph>
<glyph name="Germandbls" format="2">
  <advance width="1304"/>
  <unicode hex="1E9E"/>
  <anchor x="664" y="0" name="bottom"/>
  <anchor x="664" y="1430" name="top"/>
  <outline>
    <contour>
      <point x="805" y="-26" type="curve" smooth="yes"/>
      <point x="1093" y="-26"/>
      <point x="1247" y="171"/>
      <point x="1247" y="363" type="curve" smooth="yes"/>
      <point x="1247" y="609"/>
      <point x="1043" y="733"/>
      <point x="847" y="794" type="curve" smooth="yes"/>
      <point x="786" y="813"/>
      <point x="781" y="818"/>
      <point x="734" y="831" type="curve"/>
      <point x="743" y="813" type="line"/>
      <point x="1030" y="1331" type="line"/>
      <point x="972" y="1379"/>
      <point x="873" y="1460"/>
      <point x="654" y="1460" type="curve" smooth="yes"/>
      <point x="378" y="1460"/>
      <point x="153" y="1316"/>
      <point x="153" y="1162" type="curve" smooth="yes"/>
      <point x="153" y="0" type="line"/>
      <point x="239" y="0" type="line"/>
      <point x="239" y="1173" type="line" smooth="yes"/>
      <point x="239" y="1322"/>
      <point x="449" y="1450"/>
      <point x="654" y="1450" type="curve" smooth="yes"/>
      <point x="830" y="1450"/>
      <point x="943" y="1347"/>
      <point x="978" y="1316" type="curve"/>
      <point x="978" y="1333" type="line"/>
      <point x="685" y="804" type="line"/>
      <point x="716" y="794"/>
      <point x="752" y="780"/>
      <point x="803" y="763" type="curve" smooth="yes"/>
      <point x="1040" y="684"/>
      <point x="1153" y="553"/>
      <point x="1153" y="314" type="curve" smooth="yes"/>
      <point x="1153" y="154"/>
      <point x="1058" y="-16"/>
      <point x="809" y="-16" type="curve" smooth="yes"/>
      <point x="634" y="-16"/>
      <point x="556" y="78"/>
      <point x="487" y="192" type="curve"/>
      <point x="469" y="140" type="line"/>
      <point x="545" y="50"/>
      <point x="635" y="-26"/>
    </contour>
  </outline>
</glyph>
<glyph name="lira" format="2">
  <advance width="1115"/>
  <unicode hex="20A4"/>
  <outline>
    <contour>
      <point x="156" y="0" type="line"/>
      <point x="1010" y="0" type="line"/>
      <point x="1010" y="37" type="line"/>
      <point x="156" y="37" type="line"/>
    </contour>
    <contour>
      <point x="156" y="717" type="line"/>
      <point x="840" y="717" type="line"/>
      <point x="840" y="743" type="line"/>
      <point x="156" y="743" type="line"/>
    </contour>
    <contour>
      <point x="156" y="37" type="curve"/>
      <point x="182" y="33" type="line"/>
      <point x="350" y="179"/>
      <point x="394" y="460"/>
      <point x="415" y="628" type="curve" smooth="yes"/>
      <point x="449" y="899"/>
      <point x="255" y="918"/>
      <point x="255" y="1170" type="curve" smooth="yes"/>
      <point x="255" y="1370"/>
      <point x="409" y="1438"/>
      <point x="561" y="1438" type="curve" smooth="yes"/>
      <point x="775" y="1438"/>
      <point x="921" y="1303"/>
      <point x="927" y="1128" type="curve"/>
      <point x="974" y="1128" type="line"/>
      <point x="949" y="1336"/>
      <point x="796" y="1464"/>
      <point x="568" y="1464" type="curve" smooth="yes"/>
      <point x="341" y="1464"/>
      <point x="193" y="1344"/>
      <point x="193" y="1152" type="curve" smooth="yes"/>
      <point x="193" y="924"/>
      <point x="404" y="875"/>
      <point x="366" y="611" type="curve" smooth="yes"/>
      <point x="354" y="528"/>
      <point x="325" y="196"/>
    </contour>
    <contour>
      <point x="156" y="517" type="line"/>
      <point x="840" y="517" type="line"/>
      <point x="840" y="543" type="line"/>
      <point x="156" y="543" type="line"/>
    </contour>
  </outline>
</glyph>
<glyph name="rupeeIndian" format="2">
  <advance width="1234"/>
  <unicode hex="20B9"/>
  <outline>
    <contour>
      <point x="386" y="629" type="line"/>
      <point x="440" y="619"/>
      <point x="519" y="650"/>
      <point x="636" y="533" type="curve" smooth="yes"/>
      <point x="698" y="471"/>
      <point x="751" y="393"/>
      <point x="829" y="200" type="curve" smooth="yes"/>
      <point x="845" y="160"/>
      <point x="882" y="62"/>
      <point x="901" y="0" type="curve"/>
      <point x="950" y="0" type="line"/>
      <point x="923" y="69"/>
      <point x="883" y="178"/>
      <point x="851" y="247" type="curve" smooth="yes"/>
      <point x="813" y="331"/>
      <point x="761" y="437"/>
      <point x="687" y="514" type="curve" smooth="yes"/>
      <point x="637" y="566"/>
      <point x="560" y="641"/>
      <point x="444" y="632" type="curve"/>
    </contour>
    <contour>
      <point x="123" y="636" type="line"/>
      <point x="123" y="626" type="line"/>
      <point x="410" y="626" type="line"/>
      <point x="458" y="625" type="line"/>
      <point x="719" y="633"/>
      <point x="912" y="771"/>
      <point x="912" y="1010" type="curve" smooth="yes"/>
      <point x="912" y="1259"/>
      <point x="703" y="1430"/>
      <point x="464" y="1430" type="curve" smooth="yes"/>
      <point x="123" y="1430" type="line"/>
      <point x="123" y="1420" type="line"/>
      <point x="464" y="1420" type="line" smooth="yes"/>
      <point x="669" y="1420"/>
      <point x="844" y="1249"/>
      <point x="844" y="1009" type="curve" smooth="yes"/>
      <point x="844" y="762"/>
      <point x="660" y="636"/>
      <point x="464" y="636" type="curve" smooth="yes"/>
    </contour>
    <contour>
      <point x="123" y="1420" type="line"/>
      <point x="1130" y="1420" type="line"/>
      <point x="1130" y="1430" type="line"/>
      <point x="123" y="1430" type="line"/>
    </contour>
    <contour>
      <point x="123" y="1005" type="line"/>
      <point x="1130" y="1005" type="line"/>
      <point x="1130" y="1015" type="line"/>
      <point x="123" y="1015" type="line"/>
    </contour>
  </outline>
</glyph>
<glyph name="trademark" format="2">
  <advance width="1403"/>
  <unicode hex="2122"/>
  <note>
trademark
</note>
  <outline>
    <contour>
      <point x="654" y="900" type="line"/>
      <point x="734" y="900" type="line"/>
      <point x="734" y="1348" type="line"/>
      <point x="910" y="900" type="line"/>
      <point x="962" y="900" type="line"/>
      <point x="1130" y="1348" type="line"/>
      <point x="1130" y="900" type="line"/>
      <point x="1210" y="900" type="line"/>
      <point x="1210" y="1422" type="line"/>
      <point x="1082" y="1422" type="line"/>
      <point x="936" y="1026" type="line"/>
      <point x="780" y="1422" type="line"/>
      <point x="654" y="1422" type="line"/>
    </contour>
    <contour>
      <point x="272" y="900" type="line"/>
      <point x="364" y="900" type="line"/>
      <point x="364" y="1356" type="line"/>
      <point x="532" y="1356" type="line"/>
      <point x="532" y="1422" type="line"/>
      <point x="102" y="1422" type="line"/>
      <point x="102" y="1356" type="line"/>
      <point x="272" y="1356" type="line"/>
    </contour>
  </outline>
</glyph>
<glyph name="partialdiff" format="2">
  <advance width="930"/>
  <unicode hex="2202"/>
  <note>
partialdiff
</note>
  <outline>
    <contour>
      <point x="420" y="-14" type="curve" smooth="yes"/>
      <point x="636" y="-14"/>
      <point x="791" y="292"/>
      <point x="791" y="682" type="curve" smooth="yes"/>
      <point x="791" y="963"/>
      <point x="692" y="1251"/>
      <point x="462" y="1251" type="curve" smooth="yes"/>
      <point x="353" y="1251"/>
      <point x="274" y="1189"/>
      <point x="274" y="1141" type="curve" smooth="yes"/>
      <point x="274" y="1127"/>
      <point x="283" y="1118"/>
      <point x="289" y="1118" type="curve" smooth="yes"/>
      <point x="304" y="1118"/>
      <point x="316" y="1168"/>
      <point x="353" y="1204" type="curve" smooth="yes"/>
      <point x="380" y="1231"/>
      <point x="410" y="1240"/>
      <point x="472" y="1240" type="curve" smooth="yes"/>
      <point x="656" y="1240"/>
      <point x="711" y="977"/>
      <point x="711" y="760" type="curve" smooth="yes"/>
      <point x="711" y="690"/>
      <point x="708" y="603"/>
      <point x="702" y="531" type="curve"/>
      <point x="661" y="715"/>
      <point x="534" y="745"/>
      <point x="441" y="745" type="curve" smooth="yes"/>
      <point x="208" y="745"/>
      <point x="104" y="535"/>
      <point x="104" y="342" type="curve" smooth="yes"/>
      <point x="104" y="101"/>
      <point x="288" y="-14"/>
    </contour>
    <contour>
      <point x="397" y="-1" type="curve" smooth="yes"/>
      <point x="320" y="-1"/>
      <point x="199" y="55"/>
      <point x="199" y="311" type="curve" smooth="yes"/>
      <point x="199" y="536"/>
      <point x="297" y="730"/>
      <point x="478" y="730" type="curve" smooth="yes"/>
      <point x="603" y="730"/>
      <point x="663" y="638"/>
      <point x="663" y="446" type="curve" smooth="yes"/>
      <point x="663" y="218"/>
      <point x="548" y="-1"/>
    </contour>
  </outline>
</glyph>
<glyph name="summation" format="2">
  <advance width="1197"/>
  <unicode hex="2211"/>
  <note>
summation
</note>
  <outline>
    <contour>
      <point x="86" y="-295" type="line"/>
      <point x="1108" y="-295" type="line"/>
      <point x="1108" y="-234" type="line"/>
      <point x="215" y="-234" type="line"/>
      <point x="922" y="551" type="line"/>
      <point x="244" y="1286" type="line"/>
      <point x="1092" y="1286" type="line"/>
      <point x="1092" y="1357" type="line"/>
      <point x="118" y="1357" type="line"/>
      <point x="118" y="1289" type="line"/>
      <point x="804" y="546" type="line"/>
      <point x="86" y="-252" type="line"/>
    </contour>
  </outline>
</glyph>
<glyph name="integral" format="2">
  <advance width="992"/>
  <unicode hex="222B"/>
  <note>
integral
</note>
  <outline>
    <contour>
      <point x="188" y="-517" type="curve" smooth="yes"/>
      <point x="351" y="-517"/>
      <point x="372" y="-341"/>
      <point x="407" y="-141" type="curve" smooth="yes"/>
      <point x="636" y="1155" type="line" smooth="yes"/>
      <point x="684" y="1429"/>
      <point x="719" y="1502"/>
      <point x="805" y="1502" type="curve"/>
      <point x="857" y="1495"/>
      <point x="870" y="1455"/>
      <point x="870" y="1420" type="curve" smooth="yes"/>
      <point x="870" y="1382"/>
      <point x="855" y="1323"/>
      <point x="837" y="1298" type="curve"/>
      <point x="882" y="1298" type="line"/>
      <point x="902" y="1338"/>
      <point x="921" y="1392"/>
      <point x="921" y="1436" type="curve" smooth="yes"/>
      <point x="921" y="1492"/>
      <point x="880" y="1531"/>
      <point x="803" y="1531" type="curve" smooth="yes"/>
      <point x="640" y="1531"/>
      <point x="619" y="1355"/>
      <point x="584" y="1155" type="curve" smooth="yes"/>
      <point x="355" y="-141" type="line" smooth="yes"/>
      <point x="307" y="-415"/>
      <point x="272" y="-488"/>
      <point x="186" y="-488" type="curve"/>
      <point x="134" y="-481"/>
      <point x="121" y="-441"/>
      <point x="121" y="-406" type="curve" smooth="yes"/>
      <point x="121" y="-369"/>
      <point x="136" y="-309"/>
      <point x="154" y="-284" type="curve"/>
      <point x="109" y="-284" type="line"/>
      <point x="88" y="-325"/>
      <point x="71" y="-375"/>
      <point x="71" y="-419" type="curve" smooth="yes"/>
      <point x="71" y="-477"/>
      <point x="110" y="-517"/>
    </contour>
  </outline>
</glyph>
<glyph name="fi" format="2">
  <advance width="609"/>
  <unicode hex="F001"/>
  <note>
fi
</note>
  <anchor x="307" y="0" name="caret_1"/>
  <outline>
    <contour>
      <point x="167" y="0" type="line"/>
      <point x="239" y="0" type="line"/>
      <point x="239" y="939" type="line"/>
      <point x="202" y="900" type="line"/>
      <point x="443" y="900" type="line"/>
      <point x="443" y="910" type="line"/>
      <point x="202" y="910" type="line"/>
      <point x="239" y="871" type="line"/>
      <point x="239" y="1155" type="line" smooth="yes"/>
      <point x="239" y="1439"/>
      <point x="273" y="1518"/>
      <point x="357" y="1518" type="curve" smooth="yes"/>
      <point x="412" y="1510"/>
      <point x="450" y="1462"/>
      <point x="450" y="1388" type="curve" smooth="yes"/>
      <point x="450" y="1361"/>
      <point x="445" y="1333"/>
      <point x="438" y="1314" type="curve"/>
      <point x="498" y="1314" type="line"/>
      <point x="505" y="1357"/>
      <point x="508" y="1383"/>
      <point x="508" y="1401" type="curve" smooth="yes"/>
      <point x="508" y="1484"/>
      <point x="435" y="1531"/>
      <point x="350" y="1531" type="curve" smooth="yes"/>
      <point x="190" y="1531"/>
      <point x="167" y="1363"/>
      <point x="167" y="1155" type="curve" smooth="yes"/>
      <point x="167" y="871" type="line"/>
      <point x="203" y="910" type="line"/>
      <point x="27" y="910" type="line"/>
      <point x="27" y="900" type="line"/>
      <point x="203" y="900" type="line"/>
      <point x="167" y="939" type="line"/>
    </contour>
    <contour>
      <point x="424" y="0" type="line"/>
      <point x="496" y="0" type="line"/>
      <point x="496" y="910" type="line"/>
      <point x="424" y="910" type="line"/>
    </contour>
  </outline>
</glyph>
<glyph name="fl" format="2">
  <advance width="703"/>
  <unicode hex="F002"/>
  <note>
fl
</note>
  <anchor x="350.0" y="0" name="caret_1"/>
  <outline>
    <contour>
      <point x="218" y="0" type="line"/>
      <point x="290" y="0" type="line"/>
      <point x="290" y="1155" type="line" smooth="yes"/>
      <point x="290" y="1439"/>
      <point x="313" y="1518"/>
      <point x="397" y="1518" type="curve" smooth="yes"/>
      <point x="452" y="1520"/>
      <point x="490" y="1495"/>
      <point x="490" y="1388" type="curve"/>
      <point x="528" y="1314" type="line"/>
      <point x="535" y="1357"/>
      <point x="562" y="1397"/>
      <point x="562" y="1434" type="curve" smooth="yes"/>
      <point x="562" y="1498"/>
      <point x="465" y="1531"/>
      <point x="390" y="1531" type="curve" smooth="yes"/>
      <point x="220" y="1531"/>
      <point x="218" y="1363"/>
      <point x="218" y="1155" type="curve"/>
    </contour>
    <contour>
      <point x="27" y="900" type="line"/>
      <point x="503" y="900" type="line"/>
      <point x="503" y="910" type="line"/>
      <point x="27" y="910" type="line"/>
    </contour>
    <contour>
      <point x="490" y="0" type="line"/>
      <point x="562" y="0" type="line"/>
      <point x="562" y="1434" type="line"/>
      <point x="490" y="1434" type="line"/>
    </contour>
  </outline>
</glyph>
<glyph name="O.t" format="2">
  <advance width="1568"/>
  <note>
O
</note>
  <anchor x="784" y="0" name="bottom"/>
  <anchor x="784" y="715" name="center"/>
  <anchor x="1046" y="10" name="ogonek"/>
  <anchor x="784" y="1430" name="top"/>
  <anchor x="26" y="1430" name="topleft"/>
  <anchor x="1542" y="1430" name="topright"/>
  <outline>
    <contour>
      <point x="784" y="-26" type="curve" smooth="yes"/>
      <point x="1194" y="-26"/>
      <point x="1487" y="307"/>
      <point x="1487" y="715" type="curve" smooth="yes"/>
      <point x="1487" y="1124"/>
      <point x="1193" y="1460"/>
      <point x="784" y="1460" type="curve" smooth="yes"/>
      <point x="376" y="1460"/>
      <point x="81" y="1125"/>
      <point x="81" y="715" type="curve" smooth="yes"/>
      <point x="81" y="307"/>
      <point x="374" y="-26"/>
    </contour>
    <contour>
      <point x="784" y="-12" type="curve"/>
      <point x="451" y="-12"/>
      <point x="173" y="314"/>
      <point x="173" y="718" type="curve" smooth="yes"/>
      <point x="173" y="1127"/>
      <point x="459" y="1446"/>
      <point x="784" y="1446" type="curve"/>
      <point x="1109" y="1446"/>
      <point x="1395" y="1127"/>
      <point x="1395" y="718" type="curve" smooth="yes"/>
      <point x="1395" y="314"/>
      <point x="1117" y="-12"/>
    </contour>
  </outline>
</glyph>
<glyph name="_cyrillic_bar.case" format="2">
  <advance width="1144"/>
  <anchor x="712" y="491" name="_center"/>
  <outline>
    <contour>
      <point x="472" y="486" type="line"/>
      <point x="952" y="486" type="line"/>
      <point x="952" y="496" type="line"/>
      <point x="472" y="496" type="line"/>
    </contour>
  </outline>
</glyph>
<glyph name="_cyrillic_bar" format="2">
  <advance width="320"/>
  <anchor x="160" y="491" name="_center"/>
  <outline>
    <contour>
      <point x="0" y="486" type="line"/>
      <point x="320" y="486" type="line"/>
      <point x="320" y="496" type="line"/>
      <point x="0" y="496" type="line"/>
    </contour>
  </outline>
</glyph>
<glyph name="_cyrillicdescender01.case" format="2">
  <anchor x="253" y="0" name="_bottomright"/>
  <outline>
    <contour>
      <point x="253" y="0" type="line"/>
      <point x="253" y="10" type="line"/>
      <point x="80" y="10" type="line"/>
      <point x="80" y="0" type="line"/>
    </contour>
    <component base="_cyrillicdescender02.case" xOffset="204"/>
  </outline>
</glyph>
<glyph name="_cyrillicdescender01" format="2">
  <advance width="1006"/>
  <outline>
    <contour>
      <point x="94" y="0" type="line"/>
      <point x="53" y="0" type="line"/>
      <point x="63" y="-159" type="line"/>
      <point x="84" y="-159" type="line"/>
    </contour>
  </outline>
</glyph>
<glyph name="_cyrillicdescender02.case" format="2">
  <advance width="49"/>
  <outline>
    <contour>
      <point x="0" y="0" type="line"/>
      <point x="9" y="-243" type="line"/>
      <point x="40" y="-243" type="line"/>
      <point x="49" y="0" type="line"/>
    </contour>
  </outline>
</glyph>
<glyph name="cyrillic_bar_long" format="2">
  <advance width="1668"/>
  <anchor x="835" y="723" name="_center"/>
  <outline>
    <contour>
      <point x="185" y="718" type="line"/>
      <point x="1485" y="718" type="line"/>
      <point x="1485" y="728" type="line"/>
      <point x="185" y="728" type="line"/>
    </contour>
  </outline>
</glyph>
<glyph name="eight.dnom" format="2">
  <advance width="663"/>
  <note>
eight
</note>
  <outline>
    <contour>
      <point x="320" y="-23" type="curve" smooth="yes"/>
      <point x="487" y="-23"/>
      <point x="607" y="91"/>
      <point x="607" y="246" type="curve" smooth="yes"/>
      <point x="607" y="384"/>
      <point x="518" y="471"/>
      <point x="366" y="529" type="curve" smooth="yes"/>
      <point x="190" y="596"/>
      <point x="158" y="666"/>
      <point x="158" y="735" type="curve" smooth="yes"/>
      <point x="158" y="858"/>
      <point x="220" y="939"/>
      <point x="322" y="942" type="curve" smooth="yes"/>
      <point x="436" y="945"/>
      <point x="531" y="869"/>
      <point x="531" y="740" type="curve" smooth="yes"/>
      <point x="531" y="651"/>
      <point x="485" y="568"/>
      <point x="368" y="537" type="curve"/>
      <point x="372" y="533" type="line"/>
      <point x="505" y="571"/>
      <point x="563" y="650"/>
      <point x="560" y="749" type="curve" smooth="yes"/>
      <point x="556" y="871"/>
      <point x="459" y="953"/>
      <point x="330" y="953" type="curve" smooth="yes"/>
      <point x="201" y="953"/>
      <point x="95" y="875"/>
      <point x="95" y="735" type="curve" smooth="yes"/>
      <point x="95" y="628"/>
      <point x="149" y="559"/>
      <point x="265" y="512" type="curve" smooth="yes"/>
      <point x="494" y="419"/>
      <point x="536" y="340"/>
      <point x="536" y="232" type="curve" smooth="yes"/>
      <point x="536" y="80"/>
      <point x="441" y="-11"/>
      <point x="317" y="-11" type="curve" smooth="yes"/>
      <point x="160" y="-11"/>
      <point x="87" y="109"/>
      <point x="87" y="242" type="curve" smooth="yes"/>
      <point x="87" y="368"/>
      <point x="155" y="481"/>
      <point x="263" y="509" type="curve"/>
      <point x="260" y="513" type="line"/>
      <point x="136" y="480"/>
      <point x="57" y="363"/>
      <point x="57" y="239" type="curve" smooth="yes"/>
      <point x="57" y="101"/>
      <point x="145" y="-23"/>
    </contour>
  </outline>
</glyph>
<glyph name="f_f_l" format="2">
  <advance width="926"/>
  <anchor x="313.0" y="0" name="caret_1"/>
  <anchor x="609.0" y="0" name="caret_2"/>
  <outline>
    <contour>
      <point x="441" y="0" type="line"/>
      <point x="513" y="0" type="line"/>
      <point x="513" y="1155" type="line" smooth="yes"/>
      <point x="513" y="1439"/>
      <point x="536" y="1518"/>
      <point x="620" y="1518" type="curve" smooth="yes"/>
      <point x="675" y="1510"/>
      <point x="713" y="1465"/>
      <point x="713" y="1388" type="curve"/>
      <point x="751" y="1314" type="line"/>
      <point x="758" y="1357"/>
      <point x="785" y="1390"/>
      <point x="785" y="1434" type="curve" smooth="yes"/>
      <point x="785" y="1491"/>
      <point x="705" y="1531"/>
      <point x="613" y="1531" type="curve" smooth="yes"/>
      <point x="460" y="1531"/>
      <point x="441" y="1363"/>
      <point x="441" y="1155" type="curve"/>
    </contour>
    <contour>
      <point x="166" y="0" type="line"/>
      <point x="238" y="0" type="line"/>
      <point x="238" y="1138" type="line" smooth="yes"/>
      <point x="238" y="1422"/>
      <point x="261" y="1501"/>
      <point x="345" y="1501" type="curve" smooth="yes"/>
      <point x="400" y="1493"/>
      <point x="442" y="1448"/>
      <point x="442" y="1371" type="curve"/>
      <point x="441" y="1157" type="line"/>
      <point x="478" y="1294" type="line"/>
      <point x="485" y="1337"/>
      <point x="488" y="1373"/>
      <point x="488" y="1394" type="curve" smooth="yes"/>
      <point x="488" y="1474"/>
      <point x="432" y="1514"/>
      <point x="340" y="1514" type="curve" smooth="yes"/>
      <point x="187" y="1514"/>
      <point x="166" y="1346"/>
      <point x="166" y="1138" type="curve" smooth="yes"/>
    </contour>
    <contour>
      <point x="27" y="900" type="line"/>
      <point x="383" y="900" type="line"/>
      <point x="383" y="910" type="line"/>
      <point x="27" y="910" type="line"/>
    </contour>
    <contour>
      <point x="300" y="900" type="line"/>
      <point x="726" y="900" type="line"/>
      <point x="726" y="910" type="line"/>
      <point x="300" y="910" type="line"/>
    </contour>
    <contour>
      <point x="713" y="0" type="line"/>
      <point x="785" y="0" type="line"/>
      <point x="785" y="1434" type="line"/>
      <point x="713" y="1434" type="line"/>
    </contour>
  </outline>
</glyph>
<glyph name="four.dnom" format="2">
  <advance width="709"/>
  <note>
four
</note>
  <outline>
    <contour>
      <point x="459" y="0" type="line"/>
      <point x="536" y="0" type="line"/>
      <point x="536" y="271" type="line"/>
      <point x="476" y="233" type="line"/>
      <point x="659" y="233" type="line"/>
      <point x="659" y="243" type="line"/>
      <point x="476" y="243" type="line"/>
      <point x="536" y="223" type="line"/>
      <point x="536" y="583" type="line"/>
      <point x="459" y="583" type="line"/>
      <point x="459" y="223" type="line"/>
      <point x="497" y="243" type="line"/>
      <point x="63" y="243" type="line"/>
      <point x="67" y="238" type="line"/>
      <point x="216" y="421"/>
      <point x="391" y="699"/>
      <point x="474" y="945" type="curve"/>
      <point x="403" y="952" type="line"/>
      <point x="339" y="682"/>
      <point x="183" y="422"/>
      <point x="50" y="233" type="curve"/>
      <point x="497" y="233" type="line"/>
      <point x="459" y="271" type="line"/>
    </contour>
  </outline>
</glyph>
<glyph name="m.rvrn" format="2">
  <advance width="1673"/>
  <note>
m
</note>
  <anchor x="840" y="0" name="bottom"/>
  <anchor x="840" y="914" name="top"/>
  <outline>
    <contour>
      <point x="128" y="0" type="line"/>
      <point x="200" y="0" type="line"/>
      <point x="200" y="612" type="line" smooth="yes"/>
      <point x="200" y="776"/>
      <point x="358" y="926"/>
      <point x="559" y="926" type="curve" smooth="yes"/>
      <point x="735" y="926"/>
      <point x="814" y="810"/>
      <point x="814" y="539" type="curve" smooth="yes"/>
      <point x="814" y="0" type="line"/>
      <point x="886" y="0" type="line"/>
      <point x="885" y="630" type="line"/>
      <point x="878" y="636" type="line"/>
      <point x="851" y="842"/>
      <point x="743" y="938"/>
      <point x="568" y="938" type="curve" smooth="yes"/>
      <point x="392" y="938"/>
      <point x="228" y="839"/>
      <point x="196" y="671" type="curve"/>
      <point x="200" y="662" type="line"/>
      <point x="200" y="910" type="line"/>
      <point x="128" y="910" type="line"/>
    </contour>
    <contour>
      <point x="1498" y="0" type="line"/>
      <point x="1570" y="0" type="line"/>
      <point x="1570" y="536" type="line" smooth="yes"/>
      <point x="1570" y="810"/>
      <point x="1450" y="938"/>
      <point x="1250" y="938" type="curve" smooth="yes"/>
      <point x="1060" y="938"/>
      <point x="885" y="813"/>
      <point x="872" y="632" type="curve"/>
      <point x="885" y="605" type="line"/>
      <point x="881" y="761"/>
      <point x="1036" y="926"/>
      <point x="1240" y="926" type="curve" smooth="yes"/>
      <point x="1417" y="926"/>
      <point x="1498" y="810"/>
      <point x="1498" y="539" type="curve" smooth="yes"/>
    </contour>
  </outline>
</glyph>
<glyph name="seven.dnom" format="2">
  <advance width="655"/>
  <note>
seven
</note>
  <outline>
    <contour>
      <point x="191" y="0" type="curve"/>
      <point x="265" y="0" type="line"/>
      <point x="293" y="361"/>
      <point x="436" y="696"/>
      <point x="604" y="936" type="curve"/>
      <point x="53" y="936" type="line"/>
      <point x="53" y="859" type="line"/>
      <point x="543" y="859" type="line"/>
      <point x="565" y="898" type="line"/>
      <point x="399" y="673"/>
      <point x="254" y="353"/>
    </contour>
  </outline>
</glyph>
<glyph name="seven.osf" format="2">
  <advance width="825"/>
  <outline>
    <contour>
      <point x="204" y="-365" type="curve"/>
      <point x="272" y="-390" type="line"/>
      <point x="372" y="205"/>
      <point x="539" y="601"/>
      <point x="792" y="961" type="curve"/>
      <point x="36" y="961" type="line"/>
      <point x="36" y="885" type="line"/>
      <point x="730" y="885" type="line"/>
      <point x="731" y="911" type="line"/>
      <point x="484" y="555"/>
      <point x="289" y="87"/>
    </contour>
  </outline>
</glyph>
<glyph name="two.osf" format="2">
  <advance width="859"/>
  <outline>
    <contour>
      <point x="50" y="0" type="line"/>
      <point x="778" y="0" type="line"/>
      <point x="778" y="71" type="line"/>
      <point x="109" y="42" type="line"/>
      <point x="104" y="27" type="line"/>
      <point x="192" y="105"/>
      <point x="501" y="352"/>
      <point x="560" y="400" type="curve" smooth="yes"/>
      <point x="718" y="528"/>
      <point x="758" y="631"/>
      <point x="758" y="711" type="curve" smooth="yes"/>
      <point x="758" y="879"/>
      <point x="629" y="997"/>
      <point x="448" y="997" type="curve" smooth="yes"/>
      <point x="247" y="997"/>
      <point x="106" y="876"/>
      <point x="106" y="705" type="curve" smooth="yes"/>
      <point x="106" y="690"/>
      <point x="106" y="686"/>
      <point x="107" y="682" type="curve"/>
      <point x="151" y="682" type="line"/>
      <point x="151" y="690" type="line" smooth="yes"/>
      <point x="151" y="855"/>
      <point x="267" y="972"/>
      <point x="432" y="972" type="curve" smooth="yes"/>
      <point x="591" y="972"/>
      <point x="703" y="861"/>
      <point x="703" y="704" type="curve" smooth="yes"/>
      <point x="703" y="554"/>
      <point x="544" y="437"/>
      <point x="329" y="247" type="curve" smooth="yes"/>
    </contour>
  </outline>
</glyph>
<glyph name="w.rvrn" format="2">
  <advance width="1440"/>
  <note>
w
</note>
  <anchor x="716" y="0" name="bottom"/>
  <anchor x="716" y="914" name="top"/>
  <outline>
    <contour>
      <point x="1005" y="-16" type="line"/>
      <point x="1012" y="-16" type="line"/>
      <point x="1426" y="910" type="line"/>
      <point x="1413" y="910" type="line"/>
      <point x="1016" y="21" type="line"/>
      <point x="1044" y="64" type="line"/>
      <point x="638" y="910" type="line"/>
      <point x="560" y="910" type="line"/>
    </contour>
    <contour>
      <point x="439" y="-16" type="line"/>
      <point x="446" y="-16" type="line"/>
      <point x="740" y="612" type="line"/>
      <point x="733" y="626" type="line"/>
      <point x="450" y="21" type="line"/>
      <point x="478" y="64" type="line"/>
      <point x="92" y="910" type="line"/>
      <point x="14" y="910" type="line"/>
    </contour>
  </outline>
</glyph>
<glyph name="zero.dnom" format="2">
  <advance width="834"/>
  <note>
zero
</note>
  <outline>
    <contour>
      <point x="418" y="-19" type="curve" smooth="yes"/>
      <point x="629" y="-18"/>
      <point x="773" y="171"/>
      <point x="773" y="472" type="curve" smooth="yes"/>
      <point x="773" y="763"/>
      <point x="628" y="963"/>
      <point x="418" y="963" type="curve" smooth="yes"/>
      <point x="207" y="963"/>
      <point x="61" y="770"/>
      <point x="61" y="472" type="curve" smooth="yes"/>
      <point x="61" y="192"/>
      <point x="196" y="-20"/>
    </contour>
    <contour>
      <point x="418" y="-1" type="curve" smooth="yes"/>
      <point x="255" y="-1"/>
      <point x="131" y="186"/>
      <point x="131" y="474" type="curve" smooth="yes"/>
      <point x="131" y="756"/>
      <point x="252" y="944"/>
      <point x="416" y="944" type="curve" smooth="yes"/>
      <point x="580" y="944"/>
      <point x="703" y="756"/>
      <point x="703" y="470" type="curve" smooth="yes"/>
      <point x="703" y="186"/>
      <point x="581" y="-1"/>
    </contour>
  </outline>
</glyph>
